<?xml version="1.0" encoding="utf-8"?>
<svg xmlns="http://www.w3.org/2000/svg" xmlns:xlink="http://www.w3.org/1999/xlink" width="600" height="400" viewBox="0 0 2400 1600">
<defs>
  <clipPath id="clip430">
    <rect x="0" y="0" width="2400" height="1600"/>
  </clipPath>
</defs>
<path clip-path="url(#clip430)" d="
M0 1600 L2400 1600 L2400 0 L0 0  Z
  " fill="#ffffff" fill-rule="evenodd" fill-opacity="1"/>
<defs>
  <clipPath id="clip431">
    <rect x="480" y="0" width="1681" height="1600"/>
  </clipPath>
</defs>
<defs>
  <clipPath id="clip432">
    <rect x="347" y="123" width="1458" height="1301"/>
  </clipPath>
</defs>
<path clip-path="url(#clip432)" d="
M347.69 1346.4 L347.69 353.805 L881.03 123.472 L1804.8 200.25 L1804.8 1192.85 L1271.46 1423.18 L347.69 1346.4  Z
  " fill="#ffffff" fill-rule="evenodd" fill-opacity="1"/>
<polyline clip-path="url(#clip432)" style="stroke:#000000; stroke-linecap:butt; stroke-linejoin:round; stroke-width:2; stroke-opacity:0.1; fill:none" points="
  372.701,1348.48 906.041,1118.15 
  "/>
<polyline clip-path="url(#clip432)" style="stroke:#000000; stroke-linecap:butt; stroke-linejoin:round; stroke-width:2; stroke-opacity:0.1; fill:none" points="
  906.041,1118.15 906.041,125.551 
  "/>
<polyline clip-path="url(#clip432)" style="stroke:#000000; stroke-linecap:butt; stroke-linejoin:round; stroke-width:2; stroke-opacity:0.1; fill:none" points="
  578.31,1365.57 1111.65,1135.24 
  "/>
<polyline clip-path="url(#clip432)" style="stroke:#000000; stroke-linecap:butt; stroke-linejoin:round; stroke-width:2; stroke-opacity:0.1; fill:none" points="
  1111.65,1135.24 1111.65,142.64 
  "/>
<polyline clip-path="url(#clip432)" style="stroke:#000000; stroke-linecap:butt; stroke-linejoin:round; stroke-width:2; stroke-opacity:0.1; fill:none" points="
  783.918,1382.66 1317.26,1152.33 
  "/>
<polyline clip-path="url(#clip432)" style="stroke:#000000; stroke-linecap:butt; stroke-linejoin:round; stroke-width:2; stroke-opacity:0.1; fill:none" points="
  1317.26,1152.33 1317.26,159.728 
  "/>
<polyline clip-path="url(#clip432)" style="stroke:#000000; stroke-linecap:butt; stroke-linejoin:round; stroke-width:2; stroke-opacity:0.1; fill:none" points="
  989.527,1399.75 1522.87,1169.41 
  "/>
<polyline clip-path="url(#clip432)" style="stroke:#000000; stroke-linecap:butt; stroke-linejoin:round; stroke-width:2; stroke-opacity:0.1; fill:none" points="
  1522.87,1169.41 1522.87,176.817 
  "/>
<polyline clip-path="url(#clip432)" style="stroke:#000000; stroke-linecap:butt; stroke-linejoin:round; stroke-width:2; stroke-opacity:0.1; fill:none" points="
  1195.14,1416.84 1728.48,1186.5 
  "/>
<polyline clip-path="url(#clip432)" style="stroke:#000000; stroke-linecap:butt; stroke-linejoin:round; stroke-width:2; stroke-opacity:0.1; fill:none" points="
  1728.48,1186.5 1728.48,193.906 
  "/>
<polyline clip-path="url(#clip430)" style="stroke:#000000; stroke-linecap:butt; stroke-linejoin:round; stroke-width:4; stroke-opacity:1; fill:none" points="
  347.69,1346.4 1271.46,1423.18 
  "/>
<polyline clip-path="url(#clip430)" style="stroke:#000000; stroke-linecap:butt; stroke-linejoin:round; stroke-width:4; stroke-opacity:1; fill:none" points="
  372.701,1348.48 379.101,1345.72 
  "/>
<polyline clip-path="url(#clip430)" style="stroke:#000000; stroke-linecap:butt; stroke-linejoin:round; stroke-width:4; stroke-opacity:1; fill:none" points="
  578.31,1365.57 584.71,1362.81 
  "/>
<polyline clip-path="url(#clip430)" style="stroke:#000000; stroke-linecap:butt; stroke-linejoin:round; stroke-width:4; stroke-opacity:1; fill:none" points="
  783.918,1382.66 790.318,1379.89 
  "/>
<polyline clip-path="url(#clip430)" style="stroke:#000000; stroke-linecap:butt; stroke-linejoin:round; stroke-width:4; stroke-opacity:1; fill:none" points="
  989.527,1399.75 995.927,1396.98 
  "/>
<polyline clip-path="url(#clip430)" style="stroke:#000000; stroke-linecap:butt; stroke-linejoin:round; stroke-width:4; stroke-opacity:1; fill:none" points="
  1195.14,1416.84 1201.54,1414.07 
  "/>
<path clip-path="url(#clip430)" d="M295.923 1382.47 Q292.312 1382.47 290.484 1386.04 Q288.678 1389.58 288.678 1396.71 Q288.678 1403.81 290.484 1407.38 Q292.312 1410.92 295.923 1410.92 Q299.558 1410.92 301.363 1407.38 Q303.192 1403.81 303.192 1396.71 Q303.192 1389.58 301.363 1386.04 Q299.558 1382.47 295.923 1382.47 M295.923 1378.77 Q301.734 1378.77 304.789 1383.37 Q307.868 1387.96 307.868 1396.71 Q307.868 1405.43 304.789 1410.04 Q301.734 1414.62 295.923 1414.62 Q290.113 1414.62 287.035 1410.04 Q283.979 1405.43 283.979 1396.71 Q283.979 1387.96 287.035 1383.37 Q290.113 1378.77 295.923 1378.77 Z" fill="#000000" fill-rule="evenodd" fill-opacity="1" /><path clip-path="url(#clip430)" d="M316.085 1408.07 L320.97 1408.07 L320.97 1413.95 L316.085 1413.95 L316.085 1408.07 Z" fill="#000000" fill-rule="evenodd" fill-opacity="1" /><path clip-path="url(#clip430)" d="M331.294 1413.24 L331.294 1408.98 Q333.053 1409.81 334.858 1410.25 Q336.664 1410.69 338.4 1410.69 Q343.03 1410.69 345.46 1407.59 Q347.914 1404.46 348.261 1398.12 Q346.918 1400.11 344.858 1401.18 Q342.798 1402.24 340.298 1402.24 Q335.113 1402.24 332.081 1399.12 Q329.071 1395.97 329.071 1390.53 Q329.071 1385.2 332.219 1381.99 Q335.368 1378.77 340.599 1378.77 Q346.594 1378.77 349.743 1383.37 Q352.914 1387.96 352.914 1396.71 Q352.914 1404.88 349.025 1409.76 Q345.159 1414.62 338.608 1414.62 Q336.849 1414.62 335.044 1414.28 Q333.238 1413.93 331.294 1413.24 M340.599 1398.58 Q343.747 1398.58 345.576 1396.43 Q347.428 1394.28 347.428 1390.53 Q347.428 1386.8 345.576 1384.65 Q343.747 1382.47 340.599 1382.47 Q337.451 1382.47 335.599 1384.65 Q333.77 1386.8 333.77 1390.53 Q333.77 1394.28 335.599 1396.43 Q337.451 1398.58 340.599 1398.58 Z" fill="#000000" fill-rule="evenodd" fill-opacity="1" /><path clip-path="url(#clip430)" d="M361.455 1413.24 L361.455 1408.98 Q363.215 1409.81 365.02 1410.25 Q366.826 1410.69 368.562 1410.69 Q373.191 1410.69 375.622 1407.59 Q378.076 1404.46 378.423 1398.12 Q377.08 1400.11 375.02 1401.18 Q372.96 1402.24 370.46 1402.24 Q365.275 1402.24 362.242 1399.12 Q359.233 1395.97 359.233 1390.53 Q359.233 1385.2 362.381 1381.99 Q365.529 1378.77 370.761 1378.77 Q376.756 1378.77 379.904 1383.37 Q383.076 1387.96 383.076 1396.71 Q383.076 1404.88 379.187 1409.76 Q375.321 1414.62 368.77 1414.62 Q367.011 1414.62 365.205 1414.28 Q363.4 1413.93 361.455 1413.24 M370.761 1398.58 Q373.909 1398.58 375.738 1396.43 Q377.59 1394.28 377.59 1390.53 Q377.59 1386.8 375.738 1384.65 Q373.909 1382.47 370.761 1382.47 Q367.613 1382.47 365.761 1384.65 Q363.932 1386.8 363.932 1390.53 Q363.932 1394.28 365.761 1396.43 Q367.613 1398.58 370.761 1398.58 Z" fill="#000000" fill-rule="evenodd" fill-opacity="1" /><path clip-path="url(#clip430)" d="M401.478 1382.47 Q397.867 1382.47 396.039 1386.04 Q394.233 1389.58 394.233 1396.71 Q394.233 1403.81 396.039 1407.38 Q397.867 1410.92 401.478 1410.92 Q405.113 1410.92 406.918 1407.38 Q408.747 1403.81 408.747 1396.71 Q408.747 1389.58 406.918 1386.04 Q405.113 1382.47 401.478 1382.47 M401.478 1378.77 Q407.289 1378.77 410.344 1383.37 Q413.423 1387.96 413.423 1396.71 Q413.423 1405.43 410.344 1410.04 Q407.289 1414.62 401.478 1414.62 Q395.668 1414.62 392.59 1410.04 Q389.534 1405.43 389.534 1396.71 Q389.534 1387.96 392.59 1383.37 Q395.668 1378.77 401.478 1378.77 Z" fill="#000000" fill-rule="evenodd" fill-opacity="1" /><path clip-path="url(#clip430)" d="M502.03 1399.56 Q498.419 1399.56 496.59 1403.13 Q494.784 1406.67 494.784 1413.8 Q494.784 1420.9 496.59 1424.47 Q498.419 1428.01 502.03 1428.01 Q505.664 1428.01 507.469 1424.47 Q509.298 1420.9 509.298 1413.8 Q509.298 1406.67 507.469 1403.13 Q505.664 1399.56 502.03 1399.56 M502.03 1395.86 Q507.84 1395.86 510.895 1400.46 Q513.974 1405.05 513.974 1413.8 Q513.974 1422.52 510.895 1427.13 Q507.84 1431.71 502.03 1431.71 Q496.22 1431.71 493.141 1427.13 Q490.085 1422.52 490.085 1413.8 Q490.085 1405.05 493.141 1400.46 Q496.22 1395.86 502.03 1395.86 Z" fill="#000000" fill-rule="evenodd" fill-opacity="1" /><path clip-path="url(#clip430)" d="M522.192 1425.16 L527.076 1425.16 L527.076 1431.04 L522.192 1431.04 L522.192 1425.16 Z" fill="#000000" fill-rule="evenodd" fill-opacity="1" /><path clip-path="url(#clip430)" d="M537.4 1430.32 L537.4 1426.06 Q539.159 1426.9 540.965 1427.34 Q542.77 1427.78 544.506 1427.78 Q549.136 1427.78 551.566 1424.68 Q554.02 1421.55 554.367 1415.21 Q553.025 1417.2 550.965 1418.26 Q548.904 1419.33 546.404 1419.33 Q541.219 1419.33 538.187 1416.2 Q535.178 1413.06 535.178 1407.62 Q535.178 1402.29 538.326 1399.07 Q541.474 1395.86 546.705 1395.86 Q552.701 1395.86 555.849 1400.46 Q559.02 1405.05 559.02 1413.8 Q559.02 1421.97 555.131 1426.85 Q551.266 1431.71 544.715 1431.71 Q542.955 1431.71 541.15 1431.37 Q539.344 1431.02 537.4 1430.32 M546.705 1415.67 Q549.854 1415.67 551.682 1413.52 Q553.534 1411.37 553.534 1407.62 Q553.534 1403.89 551.682 1401.74 Q549.854 1399.56 546.705 1399.56 Q543.557 1399.56 541.705 1401.74 Q539.877 1403.89 539.877 1407.62 Q539.877 1411.37 541.705 1413.52 Q543.557 1415.67 546.705 1415.67 Z" fill="#000000" fill-rule="evenodd" fill-opacity="1" /><path clip-path="url(#clip430)" d="M567.562 1430.32 L567.562 1426.06 Q569.321 1426.9 571.127 1427.34 Q572.932 1427.78 574.668 1427.78 Q579.298 1427.78 581.728 1424.68 Q584.182 1421.55 584.529 1415.21 Q583.187 1417.2 581.126 1418.26 Q579.066 1419.33 576.566 1419.33 Q571.381 1419.33 568.349 1416.2 Q565.34 1413.06 565.34 1407.62 Q565.34 1402.29 568.488 1399.07 Q571.636 1395.86 576.867 1395.86 Q582.863 1395.86 586.011 1400.46 Q589.182 1405.05 589.182 1413.8 Q589.182 1421.97 585.293 1426.85 Q581.427 1431.71 574.877 1431.71 Q573.117 1431.71 571.312 1431.37 Q569.506 1431.02 567.562 1430.32 M576.867 1415.67 Q580.015 1415.67 581.844 1413.52 Q583.696 1411.37 583.696 1407.62 Q583.696 1403.89 581.844 1401.74 Q580.015 1399.56 576.867 1399.56 Q573.719 1399.56 571.867 1401.74 Q570.039 1403.89 570.039 1407.62 Q570.039 1411.37 571.867 1413.52 Q573.719 1415.67 576.867 1415.67 Z" fill="#000000" fill-rule="evenodd" fill-opacity="1" /><path clip-path="url(#clip430)" d="M597.631 1396.48 L615.987 1396.48 L615.987 1400.42 L601.913 1400.42 L601.913 1408.89 Q602.932 1408.54 603.95 1408.38 Q604.969 1408.19 605.987 1408.19 Q611.774 1408.19 615.154 1411.37 Q618.534 1414.54 618.534 1419.95 Q618.534 1425.53 615.061 1428.63 Q611.589 1431.71 605.27 1431.71 Q603.094 1431.71 600.825 1431.34 Q598.58 1430.97 596.173 1430.23 L596.173 1425.53 Q598.256 1426.67 600.478 1427.22 Q602.7 1427.78 605.177 1427.78 Q609.182 1427.78 611.52 1425.67 Q613.858 1423.56 613.858 1419.95 Q613.858 1416.34 611.52 1414.24 Q609.182 1412.13 605.177 1412.13 Q603.302 1412.13 601.427 1412.55 Q599.575 1412.96 597.631 1413.84 L597.631 1396.48 Z" fill="#000000" fill-rule="evenodd" fill-opacity="1" /><path clip-path="url(#clip430)" d="M696.909 1444.2 L704.548 1444.2 L704.548 1417.83 L696.238 1419.5 L696.238 1415.24 L704.502 1413.57 L709.178 1413.57 L709.178 1444.2 L716.817 1444.2 L716.817 1448.13 L696.909 1448.13 L696.909 1444.2 Z" fill="#000000" fill-rule="evenodd" fill-opacity="1" /><path clip-path="url(#clip430)" d="M726.261 1442.25 L731.145 1442.25 L731.145 1448.13 L726.261 1448.13 L726.261 1442.25 Z" fill="#000000" fill-rule="evenodd" fill-opacity="1" /><path clip-path="url(#clip430)" d="M751.33 1416.65 Q747.719 1416.65 745.89 1420.21 Q744.085 1423.76 744.085 1430.89 Q744.085 1437.99 745.89 1441.56 Q747.719 1445.1 751.33 1445.1 Q754.964 1445.1 756.77 1441.56 Q758.599 1437.99 758.599 1430.89 Q758.599 1423.76 756.77 1420.21 Q754.964 1416.65 751.33 1416.65 M751.33 1412.95 Q757.14 1412.95 760.196 1417.55 Q763.275 1422.14 763.275 1430.89 Q763.275 1439.61 760.196 1444.22 Q757.14 1448.8 751.33 1448.8 Q745.52 1448.8 742.441 1444.22 Q739.386 1439.61 739.386 1430.89 Q739.386 1422.14 742.441 1417.55 Q745.52 1412.95 751.33 1412.95 Z" fill="#000000" fill-rule="evenodd" fill-opacity="1" /><path clip-path="url(#clip430)" d="M781.492 1416.65 Q777.881 1416.65 776.052 1420.21 Q774.247 1423.76 774.247 1430.89 Q774.247 1437.99 776.052 1441.56 Q777.881 1445.1 781.492 1445.1 Q785.126 1445.1 786.932 1441.56 Q788.761 1437.99 788.761 1430.89 Q788.761 1423.76 786.932 1420.21 Q785.126 1416.65 781.492 1416.65 M781.492 1412.95 Q787.302 1412.95 790.358 1417.55 Q793.437 1422.14 793.437 1430.89 Q793.437 1439.61 790.358 1444.22 Q787.302 1448.8 781.492 1448.8 Q775.682 1448.8 772.603 1444.22 Q769.548 1439.61 769.548 1430.89 Q769.548 1422.14 772.603 1417.55 Q775.682 1412.95 781.492 1412.95 Z" fill="#000000" fill-rule="evenodd" fill-opacity="1" /><path clip-path="url(#clip430)" d="M811.654 1416.65 Q808.043 1416.65 806.214 1420.21 Q804.409 1423.76 804.409 1430.89 Q804.409 1437.99 806.214 1441.56 Q808.043 1445.1 811.654 1445.1 Q815.288 1445.1 817.094 1441.56 Q818.922 1437.99 818.922 1430.89 Q818.922 1423.76 817.094 1420.21 Q815.288 1416.65 811.654 1416.65 M811.654 1412.95 Q817.464 1412.95 820.52 1417.55 Q823.598 1422.14 823.598 1430.89 Q823.598 1439.61 820.52 1444.22 Q817.464 1448.8 811.654 1448.8 Q805.844 1448.8 802.765 1444.22 Q799.71 1439.61 799.71 1430.89 Q799.71 1422.14 802.765 1417.55 Q805.844 1412.95 811.654 1412.95 Z" fill="#000000" fill-rule="evenodd" fill-opacity="1" /><path clip-path="url(#clip430)" d="M903.016 1461.28 L910.654 1461.28 L910.654 1434.92 L902.344 1436.59 L902.344 1432.33 L910.608 1430.66 L915.284 1430.66 L915.284 1461.28 L922.923 1461.28 L922.923 1465.22 L903.016 1465.22 L903.016 1461.28 Z" fill="#000000" fill-rule="evenodd" fill-opacity="1" /><path clip-path="url(#clip430)" d="M932.367 1459.34 L937.252 1459.34 L937.252 1465.22 L932.367 1465.22 L932.367 1459.34 Z" fill="#000000" fill-rule="evenodd" fill-opacity="1" /><path clip-path="url(#clip430)" d="M957.437 1433.74 Q953.825 1433.74 951.997 1437.3 Q950.191 1440.84 950.191 1447.97 Q950.191 1455.08 951.997 1458.65 Q953.825 1462.19 957.437 1462.19 Q961.071 1462.19 962.876 1458.65 Q964.705 1455.08 964.705 1447.97 Q964.705 1440.84 962.876 1437.3 Q961.071 1433.74 957.437 1433.74 M957.437 1430.03 Q963.247 1430.03 966.302 1434.64 Q969.381 1439.22 969.381 1447.97 Q969.381 1456.7 966.302 1461.31 Q963.247 1465.89 957.437 1465.89 Q951.626 1465.89 948.548 1461.31 Q945.492 1456.7 945.492 1447.97 Q945.492 1439.22 948.548 1434.64 Q951.626 1430.03 957.437 1430.03 Z" fill="#000000" fill-rule="evenodd" fill-opacity="1" /><path clip-path="url(#clip430)" d="M987.598 1433.74 Q983.987 1433.74 982.159 1437.3 Q980.353 1440.84 980.353 1447.97 Q980.353 1455.08 982.159 1458.65 Q983.987 1462.19 987.598 1462.19 Q991.233 1462.19 993.038 1458.65 Q994.867 1455.08 994.867 1447.97 Q994.867 1440.84 993.038 1437.3 Q991.233 1433.74 987.598 1433.74 M987.598 1430.03 Q993.409 1430.03 996.464 1434.64 Q999.543 1439.22 999.543 1447.97 Q999.543 1456.7 996.464 1461.31 Q993.409 1465.89 987.598 1465.89 Q981.788 1465.89 978.71 1461.31 Q975.654 1456.7 975.654 1447.97 Q975.654 1439.22 978.71 1434.64 Q981.788 1430.03 987.598 1430.03 Z" fill="#000000" fill-rule="evenodd" fill-opacity="1" /><path clip-path="url(#clip430)" d="M1007.81 1430.66 L1026.16 1430.66 L1026.16 1434.59 L1012.09 1434.59 L1012.09 1443.07 Q1013.11 1442.72 1014.13 1442.56 Q1015.14 1442.37 1016.16 1442.37 Q1021.95 1442.37 1025.33 1445.54 Q1028.71 1448.71 1028.71 1454.13 Q1028.71 1459.71 1025.24 1462.81 Q1021.76 1465.89 1015.45 1465.89 Q1013.27 1465.89 1011 1465.52 Q1008.76 1465.15 1006.35 1464.41 L1006.35 1459.71 Q1008.43 1460.84 1010.65 1461.4 Q1012.88 1461.96 1015.35 1461.96 Q1019.36 1461.96 1021.7 1459.85 Q1024.03 1457.74 1024.03 1454.13 Q1024.03 1450.52 1021.7 1448.41 Q1019.36 1446.31 1015.35 1446.31 Q1013.48 1446.31 1011.6 1446.72 Q1009.75 1447.14 1007.81 1448.02 L1007.81 1430.66 Z" fill="#000000" fill-rule="evenodd" fill-opacity="1" /><path clip-path="url(#clip430)" d="M1108.13 1478.37 L1115.77 1478.37 L1115.77 1452.01 L1107.46 1453.67 L1107.46 1449.41 L1115.72 1447.75 L1120.39 1447.75 L1120.39 1478.37 L1128.03 1478.37 L1128.03 1482.31 L1108.13 1482.31 L1108.13 1478.37 Z" fill="#000000" fill-rule="evenodd" fill-opacity="1" /><path clip-path="url(#clip430)" d="M1137.48 1476.43 L1142.36 1476.43 L1142.36 1482.31 L1137.48 1482.31 L1137.48 1476.43 Z" fill="#000000" fill-rule="evenodd" fill-opacity="1" /><path clip-path="url(#clip430)" d="M1162.55 1450.83 Q1158.94 1450.83 1157.11 1454.39 Q1155.3 1457.93 1155.3 1465.06 Q1155.3 1472.17 1157.11 1475.73 Q1158.94 1479.28 1162.55 1479.28 Q1166.18 1479.28 1167.99 1475.73 Q1169.82 1472.17 1169.82 1465.06 Q1169.82 1457.93 1167.99 1454.39 Q1166.18 1450.83 1162.55 1450.83 M1162.55 1447.12 Q1168.36 1447.12 1171.41 1451.73 Q1174.49 1456.31 1174.49 1465.06 Q1174.49 1473.79 1171.41 1478.4 Q1168.36 1482.98 1162.55 1482.98 Q1156.74 1482.98 1153.66 1478.4 Q1150.6 1473.79 1150.6 1465.06 Q1150.6 1456.31 1153.66 1451.73 Q1156.74 1447.12 1162.55 1447.12 Z" fill="#000000" fill-rule="evenodd" fill-opacity="1" /><path clip-path="url(#clip430)" d="M1183.52 1478.37 L1191.16 1478.37 L1191.16 1452.01 L1182.85 1453.67 L1182.85 1449.41 L1191.11 1447.75 L1195.79 1447.75 L1195.79 1478.37 L1203.43 1478.37 L1203.43 1482.31 L1183.52 1482.31 L1183.52 1478.37 Z" fill="#000000" fill-rule="evenodd" fill-opacity="1" /><path clip-path="url(#clip430)" d="M1222.87 1450.83 Q1219.26 1450.83 1217.43 1454.39 Q1215.63 1457.93 1215.63 1465.06 Q1215.63 1472.17 1217.43 1475.73 Q1219.26 1479.28 1222.87 1479.28 Q1226.51 1479.28 1228.31 1475.73 Q1230.14 1472.17 1230.14 1465.06 Q1230.14 1457.93 1228.31 1454.39 Q1226.51 1450.83 1222.87 1450.83 M1222.87 1447.12 Q1228.68 1447.12 1231.74 1451.73 Q1234.82 1456.31 1234.82 1465.06 Q1234.82 1473.79 1231.74 1478.4 Q1228.68 1482.98 1222.87 1482.98 Q1217.06 1482.98 1213.98 1478.4 Q1210.93 1473.79 1210.93 1465.06 Q1210.93 1456.31 1213.98 1451.73 Q1217.06 1447.12 1222.87 1447.12 Z" fill="#000000" fill-rule="evenodd" fill-opacity="1" /><path clip-path="url(#clip430)" d="M668.282 1517.42 L675.189 1517.42 L686.997 1535.08 L698.869 1517.42 L705.776 1517.42 L690.498 1540.24 L706.795 1564.94 L699.888 1564.94 L686.52 1544.72 L673.056 1564.94 L666.118 1564.94 L683.082 1539.57 L668.282 1517.42 Z" fill="#000000" fill-rule="evenodd" fill-opacity="1" /><polyline clip-path="url(#clip432)" style="stroke:#000000; stroke-linecap:butt; stroke-linejoin:round; stroke-width:2; stroke-opacity:0.1; fill:none" points="
  1351.77,1388.5 428.002,1311.72 
  "/>
<polyline clip-path="url(#clip432)" style="stroke:#000000; stroke-linecap:butt; stroke-linejoin:round; stroke-width:2; stroke-opacity:0.1; fill:none" points="
  428.002,1311.72 428.002,319.121 
  "/>
<polyline clip-path="url(#clip432)" style="stroke:#000000; stroke-linecap:butt; stroke-linejoin:round; stroke-width:2; stroke-opacity:0.1; fill:none" points="
  1444.95,1348.26 521.174,1271.48 
  "/>
<polyline clip-path="url(#clip432)" style="stroke:#000000; stroke-linecap:butt; stroke-linejoin:round; stroke-width:2; stroke-opacity:0.1; fill:none" points="
  521.174,1271.48 521.174,278.883 
  "/>
<polyline clip-path="url(#clip432)" style="stroke:#000000; stroke-linecap:butt; stroke-linejoin:round; stroke-width:2; stroke-opacity:0.1; fill:none" points="
  1538.12,1308.02 614.345,1231.24 
  "/>
<polyline clip-path="url(#clip432)" style="stroke:#000000; stroke-linecap:butt; stroke-linejoin:round; stroke-width:2; stroke-opacity:0.1; fill:none" points="
  614.345,1231.24 614.345,238.645 
  "/>
<polyline clip-path="url(#clip432)" style="stroke:#000000; stroke-linecap:butt; stroke-linejoin:round; stroke-width:2; stroke-opacity:0.1; fill:none" points="
  1631.29,1267.78 707.517,1191 
  "/>
<polyline clip-path="url(#clip432)" style="stroke:#000000; stroke-linecap:butt; stroke-linejoin:round; stroke-width:2; stroke-opacity:0.1; fill:none" points="
  707.517,1191 707.517,198.407 
  "/>
<polyline clip-path="url(#clip432)" style="stroke:#000000; stroke-linecap:butt; stroke-linejoin:round; stroke-width:2; stroke-opacity:0.1; fill:none" points="
  1724.46,1227.54 800.689,1150.77 
  "/>
<polyline clip-path="url(#clip432)" style="stroke:#000000; stroke-linecap:butt; stroke-linejoin:round; stroke-width:2; stroke-opacity:0.1; fill:none" points="
  800.689,1150.77 800.689,158.169 
  "/>
<polyline clip-path="url(#clip430)" style="stroke:#000000; stroke-linecap:butt; stroke-linejoin:round; stroke-width:4; stroke-opacity:1; fill:none" points="
  1271.46,1423.18 1804.8,1192.85 
  "/>
<polyline clip-path="url(#clip430)" style="stroke:#000000; stroke-linecap:butt; stroke-linejoin:round; stroke-width:4; stroke-opacity:1; fill:none" points="
  1351.77,1388.5 1340.69,1387.57 
  "/>
<polyline clip-path="url(#clip430)" style="stroke:#000000; stroke-linecap:butt; stroke-linejoin:round; stroke-width:4; stroke-opacity:1; fill:none" points="
  1444.95,1348.26 1433.86,1347.34 
  "/>
<polyline clip-path="url(#clip430)" style="stroke:#000000; stroke-linecap:butt; stroke-linejoin:round; stroke-width:4; stroke-opacity:1; fill:none" points="
  1538.12,1308.02 1527.03,1307.1 
  "/>
<polyline clip-path="url(#clip430)" style="stroke:#000000; stroke-linecap:butt; stroke-linejoin:round; stroke-width:4; stroke-opacity:1; fill:none" points="
  1631.29,1267.78 1620.2,1266.86 
  "/>
<polyline clip-path="url(#clip430)" style="stroke:#000000; stroke-linecap:butt; stroke-linejoin:round; stroke-width:4; stroke-opacity:1; fill:none" points="
  1724.46,1227.54 1713.38,1226.62 
  "/>
<path clip-path="url(#clip430)" d="M1277.06 1437.14 L1306.74 1437.14 L1306.74 1441.07 L1277.06 1441.07 L1277.06 1437.14 Z" fill="#000000" fill-rule="evenodd" fill-opacity="1" /><path clip-path="url(#clip430)" d="M1326.83 1422.49 Q1323.22 1422.49 1321.39 1426.05 Q1319.58 1429.59 1319.58 1436.72 Q1319.58 1443.83 1321.39 1447.39 Q1323.22 1450.94 1326.83 1450.94 Q1330.46 1450.94 1332.27 1447.39 Q1334.1 1443.83 1334.1 1436.72 Q1334.1 1429.59 1332.27 1426.05 Q1330.46 1422.49 1326.83 1422.49 M1326.83 1418.78 Q1332.64 1418.78 1335.69 1423.39 Q1338.77 1427.97 1338.77 1436.72 Q1338.77 1445.45 1335.69 1450.06 Q1332.64 1454.64 1326.83 1454.64 Q1321.02 1454.64 1317.94 1450.06 Q1314.88 1445.45 1314.88 1436.72 Q1314.88 1427.97 1317.94 1423.39 Q1321.02 1418.78 1326.83 1418.78 Z" fill="#000000" fill-rule="evenodd" fill-opacity="1" /><path clip-path="url(#clip430)" d="M1346.99 1448.09 L1351.87 1448.09 L1351.87 1453.97 L1346.99 1453.97 L1346.99 1448.09 Z" fill="#000000" fill-rule="evenodd" fill-opacity="1" /><path clip-path="url(#clip430)" d="M1372.06 1422.49 Q1368.45 1422.49 1366.62 1426.05 Q1364.81 1429.59 1364.81 1436.72 Q1364.81 1443.83 1366.62 1447.39 Q1368.45 1450.94 1372.06 1450.94 Q1375.69 1450.94 1377.5 1447.39 Q1379.33 1443.83 1379.33 1436.72 Q1379.33 1429.59 1377.5 1426.05 Q1375.69 1422.49 1372.06 1422.49 M1372.06 1418.78 Q1377.87 1418.78 1380.93 1423.39 Q1384 1427.97 1384 1436.72 Q1384 1445.45 1380.93 1450.06 Q1377.87 1454.64 1372.06 1454.64 Q1366.25 1454.64 1363.17 1450.06 Q1360.12 1445.45 1360.12 1436.72 Q1360.12 1427.97 1363.17 1423.39 Q1366.25 1418.78 1372.06 1418.78 Z" fill="#000000" fill-rule="evenodd" fill-opacity="1" /><path clip-path="url(#clip430)" d="M1402.22 1422.49 Q1398.61 1422.49 1396.78 1426.05 Q1394.98 1429.59 1394.98 1436.72 Q1394.98 1443.83 1396.78 1447.39 Q1398.61 1450.94 1402.22 1450.94 Q1405.86 1450.94 1407.66 1447.39 Q1409.49 1443.83 1409.49 1436.72 Q1409.49 1429.59 1407.66 1426.05 Q1405.86 1422.49 1402.22 1422.49 M1402.22 1418.78 Q1408.03 1418.78 1411.09 1423.39 Q1414.17 1427.97 1414.17 1436.72 Q1414.17 1445.45 1411.09 1450.06 Q1408.03 1454.64 1402.22 1454.64 Q1396.41 1454.64 1393.33 1450.06 Q1390.28 1445.45 1390.28 1436.72 Q1390.28 1427.97 1393.33 1423.39 Q1396.41 1418.78 1402.22 1418.78 Z" fill="#000000" fill-rule="evenodd" fill-opacity="1" /><path clip-path="url(#clip430)" d="M1422.43 1419.41 L1440.79 1419.41 L1440.79 1423.34 L1426.71 1423.34 L1426.71 1431.81 Q1427.73 1431.47 1428.75 1431.31 Q1429.77 1431.12 1430.79 1431.12 Q1436.57 1431.12 1439.95 1434.29 Q1443.33 1437.46 1443.33 1442.88 Q1443.33 1448.46 1439.86 1451.56 Q1436.39 1454.64 1430.07 1454.64 Q1427.89 1454.64 1425.62 1454.27 Q1423.38 1453.9 1420.97 1453.16 L1420.97 1448.46 Q1423.05 1449.59 1425.28 1450.15 Q1427.5 1450.7 1429.98 1450.7 Q1433.98 1450.7 1436.32 1448.6 Q1438.66 1446.49 1438.66 1442.88 Q1438.66 1439.27 1436.32 1437.16 Q1433.98 1435.06 1429.98 1435.06 Q1428.1 1435.06 1426.23 1435.47 Q1424.37 1435.89 1422.43 1436.77 L1422.43 1419.41 Z" fill="#000000" fill-rule="evenodd" fill-opacity="1" /><path clip-path="url(#clip430)" d="M1462.55 1422.49 Q1458.93 1422.49 1457.11 1426.05 Q1455.3 1429.59 1455.3 1436.72 Q1455.3 1443.83 1457.11 1447.39 Q1458.93 1450.94 1462.55 1450.94 Q1466.18 1450.94 1467.98 1447.39 Q1469.81 1443.83 1469.81 1436.72 Q1469.81 1429.59 1467.98 1426.05 Q1466.18 1422.49 1462.55 1422.49 M1462.55 1418.78 Q1468.36 1418.78 1471.41 1423.39 Q1474.49 1427.97 1474.49 1436.72 Q1474.49 1445.45 1471.41 1450.06 Q1468.36 1454.64 1462.55 1454.64 Q1456.73 1454.64 1453.66 1450.06 Q1450.6 1445.45 1450.6 1436.72 Q1450.6 1427.97 1453.66 1423.39 Q1456.73 1418.78 1462.55 1418.78 Z" fill="#000000" fill-rule="evenodd" fill-opacity="1" /><path clip-path="url(#clip430)" d="M1370.73 1396.9 L1400.41 1396.9 L1400.41 1400.84 L1370.73 1400.84 L1370.73 1396.9 Z" fill="#000000" fill-rule="evenodd" fill-opacity="1" /><path clip-path="url(#clip430)" d="M1420.5 1382.25 Q1416.89 1382.25 1415.06 1385.81 Q1413.25 1389.35 1413.25 1396.48 Q1413.25 1403.59 1415.06 1407.16 Q1416.89 1410.7 1420.5 1410.7 Q1424.13 1410.7 1425.94 1407.16 Q1427.77 1403.59 1427.77 1396.48 Q1427.77 1389.35 1425.94 1385.81 Q1424.13 1382.25 1420.5 1382.25 M1420.5 1378.54 Q1426.31 1378.54 1429.36 1383.15 Q1432.44 1387.73 1432.44 1396.48 Q1432.44 1405.21 1429.36 1409.82 Q1426.31 1414.4 1420.5 1414.4 Q1414.69 1414.4 1411.61 1409.82 Q1408.55 1405.21 1408.55 1396.48 Q1408.55 1387.73 1411.61 1383.15 Q1414.69 1378.54 1420.5 1378.54 Z" fill="#000000" fill-rule="evenodd" fill-opacity="1" /><path clip-path="url(#clip430)" d="M1440.66 1407.85 L1445.54 1407.85 L1445.54 1413.73 L1440.66 1413.73 L1440.66 1407.85 Z" fill="#000000" fill-rule="evenodd" fill-opacity="1" /><path clip-path="url(#clip430)" d="M1465.73 1382.25 Q1462.12 1382.25 1460.29 1385.81 Q1458.48 1389.35 1458.48 1396.48 Q1458.48 1403.59 1460.29 1407.16 Q1462.12 1410.7 1465.73 1410.7 Q1469.36 1410.7 1471.17 1407.16 Q1473 1403.59 1473 1396.48 Q1473 1389.35 1471.17 1385.81 Q1469.36 1382.25 1465.73 1382.25 M1465.73 1378.54 Q1471.54 1378.54 1474.59 1383.15 Q1477.67 1387.73 1477.67 1396.48 Q1477.67 1405.21 1474.59 1409.82 Q1471.54 1414.4 1465.73 1414.4 Q1459.92 1414.4 1456.84 1409.82 Q1453.78 1405.21 1453.78 1396.48 Q1453.78 1387.73 1456.84 1383.15 Q1459.92 1378.54 1465.73 1378.54 Z" fill="#000000" fill-rule="evenodd" fill-opacity="1" /><path clip-path="url(#clip430)" d="M1495.89 1382.25 Q1492.28 1382.25 1490.45 1385.81 Q1488.65 1389.35 1488.65 1396.48 Q1488.65 1403.59 1490.45 1407.16 Q1492.28 1410.7 1495.89 1410.7 Q1499.53 1410.7 1501.33 1407.16 Q1503.16 1403.59 1503.16 1396.48 Q1503.16 1389.35 1501.33 1385.81 Q1499.53 1382.25 1495.89 1382.25 M1495.89 1378.54 Q1501.7 1378.54 1504.76 1383.15 Q1507.84 1387.73 1507.84 1396.48 Q1507.84 1405.21 1504.76 1409.82 Q1501.7 1414.4 1495.89 1414.4 Q1490.08 1414.4 1487 1409.82 Q1483.95 1405.21 1483.95 1396.48 Q1483.95 1387.73 1487 1383.15 Q1490.08 1378.54 1495.89 1378.54 Z" fill="#000000" fill-rule="evenodd" fill-opacity="1" /><path clip-path="url(#clip430)" d="M1520.08 1409.79 L1536.4 1409.79 L1536.4 1413.73 L1514.46 1413.73 L1514.46 1409.79 Q1517.12 1407.04 1521.7 1402.41 Q1526.31 1397.76 1527.49 1396.41 Q1529.73 1393.89 1530.61 1392.16 Q1531.52 1390.4 1531.52 1388.71 Q1531.52 1385.95 1529.57 1384.22 Q1527.65 1382.48 1524.55 1382.48 Q1522.35 1382.48 1519.9 1383.24 Q1517.46 1384.01 1514.69 1385.56 L1514.69 1380.84 Q1517.51 1379.7 1519.96 1379.12 Q1522.42 1378.54 1524.46 1378.54 Q1529.83 1378.54 1533.02 1381.23 Q1536.21 1383.91 1536.21 1388.41 Q1536.21 1390.54 1535.4 1392.46 Q1534.62 1394.35 1532.51 1396.95 Q1531.93 1397.62 1528.83 1400.84 Q1525.73 1404.03 1520.08 1409.79 Z" fill="#000000" fill-rule="evenodd" fill-opacity="1" /><path clip-path="url(#clip430)" d="M1546.26 1379.17 L1564.62 1379.17 L1564.62 1383.1 L1550.54 1383.1 L1550.54 1391.58 Q1551.56 1391.23 1552.58 1391.07 Q1553.6 1390.88 1554.62 1390.88 Q1560.4 1390.88 1563.78 1394.05 Q1567.16 1397.23 1567.16 1402.64 Q1567.16 1408.22 1563.69 1411.32 Q1560.22 1414.4 1553.9 1414.4 Q1551.72 1414.4 1549.46 1414.03 Q1547.21 1413.66 1544.8 1412.92 L1544.8 1408.22 Q1546.89 1409.35 1549.11 1409.91 Q1551.33 1410.47 1553.81 1410.47 Q1557.81 1410.47 1560.15 1408.36 Q1562.49 1406.25 1562.49 1402.64 Q1562.49 1399.03 1560.15 1396.92 Q1557.81 1394.82 1553.81 1394.82 Q1551.93 1394.82 1550.06 1395.23 Q1548.21 1395.65 1546.26 1396.53 L1546.26 1379.17 Z" fill="#000000" fill-rule="evenodd" fill-opacity="1" /><path clip-path="url(#clip430)" d="M1494.26 1342.01 Q1490.65 1342.01 1488.82 1345.58 Q1487.01 1349.12 1487.01 1356.25 Q1487.01 1363.35 1488.82 1366.92 Q1490.65 1370.46 1494.26 1370.46 Q1497.89 1370.46 1499.7 1366.92 Q1501.53 1363.35 1501.53 1356.25 Q1501.53 1349.12 1499.7 1345.58 Q1497.89 1342.01 1494.26 1342.01 M1494.26 1338.31 Q1500.07 1338.31 1503.13 1342.91 Q1506.2 1347.5 1506.2 1356.25 Q1506.2 1364.97 1503.13 1369.58 Q1500.07 1374.16 1494.26 1374.16 Q1488.45 1374.16 1485.37 1369.58 Q1482.32 1364.97 1482.32 1356.25 Q1482.32 1347.5 1485.37 1342.91 Q1488.45 1338.31 1494.26 1338.31 Z" fill="#000000" fill-rule="evenodd" fill-opacity="1" /><path clip-path="url(#clip430)" d="M1514.42 1367.61 L1519.31 1367.61 L1519.31 1373.49 L1514.42 1373.49 L1514.42 1367.61 Z" fill="#000000" fill-rule="evenodd" fill-opacity="1" /><path clip-path="url(#clip430)" d="M1539.49 1342.01 Q1535.88 1342.01 1534.05 1345.58 Q1532.25 1349.12 1532.25 1356.25 Q1532.25 1363.35 1534.05 1366.92 Q1535.88 1370.46 1539.49 1370.46 Q1543.13 1370.46 1544.93 1366.92 Q1546.76 1363.35 1546.76 1356.25 Q1546.76 1349.12 1544.93 1345.58 Q1543.13 1342.01 1539.49 1342.01 M1539.49 1338.31 Q1545.3 1338.31 1548.36 1342.91 Q1551.44 1347.5 1551.44 1356.25 Q1551.44 1364.97 1548.36 1369.58 Q1545.3 1374.16 1539.49 1374.16 Q1533.68 1374.16 1530.6 1369.58 Q1527.55 1364.97 1527.55 1356.25 Q1527.55 1347.5 1530.6 1342.91 Q1533.68 1338.31 1539.49 1338.31 Z" fill="#000000" fill-rule="evenodd" fill-opacity="1" /><path clip-path="url(#clip430)" d="M1569.65 1342.01 Q1566.04 1342.01 1564.21 1345.58 Q1562.41 1349.12 1562.41 1356.25 Q1562.41 1363.35 1564.21 1366.92 Q1566.04 1370.46 1569.65 1370.46 Q1573.29 1370.46 1575.09 1366.92 Q1576.92 1363.35 1576.92 1356.25 Q1576.92 1349.12 1575.09 1345.58 Q1573.29 1342.01 1569.65 1342.01 M1569.65 1338.31 Q1575.46 1338.31 1578.52 1342.91 Q1581.6 1347.5 1581.6 1356.25 Q1581.6 1364.97 1578.52 1369.58 Q1575.46 1374.16 1569.65 1374.16 Q1563.84 1374.16 1560.76 1369.58 Q1557.71 1364.97 1557.71 1356.25 Q1557.71 1347.5 1560.76 1342.91 Q1563.84 1338.31 1569.65 1338.31 Z" fill="#000000" fill-rule="evenodd" fill-opacity="1" /><path clip-path="url(#clip430)" d="M1599.81 1342.01 Q1596.2 1342.01 1594.38 1345.58 Q1592.57 1349.12 1592.57 1356.25 Q1592.57 1363.35 1594.38 1366.92 Q1596.2 1370.46 1599.81 1370.46 Q1603.45 1370.46 1605.25 1366.92 Q1607.08 1363.35 1607.08 1356.25 Q1607.08 1349.12 1605.25 1345.58 Q1603.45 1342.01 1599.81 1342.01 M1599.81 1338.31 Q1605.63 1338.31 1608.68 1342.91 Q1611.76 1347.5 1611.76 1356.25 Q1611.76 1364.97 1608.68 1369.58 Q1605.63 1374.16 1599.81 1374.16 Q1594 1374.16 1590.93 1369.58 Q1587.87 1364.97 1587.87 1356.25 Q1587.87 1347.5 1590.93 1342.91 Q1594 1338.31 1599.81 1338.31 Z" fill="#000000" fill-rule="evenodd" fill-opacity="1" /><path clip-path="url(#clip430)" d="M1629.98 1342.01 Q1626.37 1342.01 1624.54 1345.58 Q1622.73 1349.12 1622.73 1356.25 Q1622.73 1363.35 1624.54 1366.92 Q1626.37 1370.46 1629.98 1370.46 Q1633.61 1370.46 1635.42 1366.92 Q1637.25 1363.35 1637.25 1356.25 Q1637.25 1349.12 1635.42 1345.58 Q1633.61 1342.01 1629.98 1342.01 M1629.98 1338.31 Q1635.79 1338.31 1638.84 1342.91 Q1641.92 1347.5 1641.92 1356.25 Q1641.92 1364.97 1638.84 1369.58 Q1635.79 1374.16 1629.98 1374.16 Q1624.17 1374.16 1621.09 1369.58 Q1618.03 1364.97 1618.03 1356.25 Q1618.03 1347.5 1621.09 1342.91 Q1624.17 1338.31 1629.98 1338.31 Z" fill="#000000" fill-rule="evenodd" fill-opacity="1" /><path clip-path="url(#clip430)" d="M1587.93 1301.77 Q1584.32 1301.77 1582.49 1305.34 Q1580.68 1308.88 1580.68 1316.01 Q1580.68 1323.11 1582.49 1326.68 Q1584.32 1330.22 1587.93 1330.22 Q1591.56 1330.22 1593.37 1326.68 Q1595.2 1323.11 1595.2 1316.01 Q1595.2 1308.88 1593.37 1305.34 Q1591.56 1301.77 1587.93 1301.77 M1587.93 1298.07 Q1593.74 1298.07 1596.8 1302.68 Q1599.87 1307.26 1599.87 1316.01 Q1599.87 1324.74 1596.8 1329.34 Q1593.74 1333.92 1587.93 1333.92 Q1582.12 1333.92 1579.04 1329.34 Q1575.99 1324.74 1575.99 1316.01 Q1575.99 1307.26 1579.04 1302.68 Q1582.12 1298.07 1587.93 1298.07 Z" fill="#000000" fill-rule="evenodd" fill-opacity="1" /><path clip-path="url(#clip430)" d="M1608.09 1327.37 L1612.98 1327.37 L1612.98 1333.25 L1608.09 1333.25 L1608.09 1327.37 Z" fill="#000000" fill-rule="evenodd" fill-opacity="1" /><path clip-path="url(#clip430)" d="M1633.16 1301.77 Q1629.55 1301.77 1627.72 1305.34 Q1625.92 1308.88 1625.92 1316.01 Q1625.92 1323.11 1627.72 1326.68 Q1629.55 1330.22 1633.16 1330.22 Q1636.79 1330.22 1638.6 1326.68 Q1640.43 1323.11 1640.43 1316.01 Q1640.43 1308.88 1638.6 1305.34 Q1636.79 1301.77 1633.16 1301.77 M1633.16 1298.07 Q1638.97 1298.07 1642.03 1302.68 Q1645.11 1307.26 1645.11 1316.01 Q1645.11 1324.74 1642.03 1329.34 Q1638.97 1333.92 1633.16 1333.92 Q1627.35 1333.92 1624.27 1329.34 Q1621.22 1324.74 1621.22 1316.01 Q1621.22 1307.26 1624.27 1302.68 Q1627.35 1298.07 1633.16 1298.07 Z" fill="#000000" fill-rule="evenodd" fill-opacity="1" /><path clip-path="url(#clip430)" d="M1663.32 1301.77 Q1659.71 1301.77 1657.88 1305.34 Q1656.08 1308.88 1656.08 1316.01 Q1656.08 1323.11 1657.88 1326.68 Q1659.71 1330.22 1663.32 1330.22 Q1666.96 1330.22 1668.76 1326.68 Q1670.59 1323.11 1670.59 1316.01 Q1670.59 1308.88 1668.76 1305.34 Q1666.96 1301.77 1663.32 1301.77 M1663.32 1298.07 Q1669.13 1298.07 1672.19 1302.68 Q1675.27 1307.26 1675.27 1316.01 Q1675.27 1324.74 1672.19 1329.34 Q1669.13 1333.92 1663.32 1333.92 Q1657.51 1333.92 1654.43 1329.34 Q1651.38 1324.74 1651.38 1316.01 Q1651.38 1307.26 1654.43 1302.68 Q1657.51 1298.07 1663.32 1298.07 Z" fill="#000000" fill-rule="evenodd" fill-opacity="1" /><path clip-path="url(#clip430)" d="M1687.51 1329.32 L1703.83 1329.32 L1703.83 1333.25 L1681.89 1333.25 L1681.89 1329.32 Q1684.55 1326.56 1689.13 1321.93 Q1693.74 1317.28 1694.92 1315.94 Q1697.16 1313.42 1698.04 1311.68 Q1698.95 1309.92 1698.95 1308.23 Q1698.95 1305.48 1697 1303.74 Q1695.08 1302 1691.98 1302 Q1689.78 1302 1687.33 1302.77 Q1684.9 1303.53 1682.12 1305.08 L1682.12 1300.36 Q1684.94 1299.23 1687.4 1298.65 Q1689.85 1298.07 1691.89 1298.07 Q1697.26 1298.07 1700.45 1300.75 Q1703.65 1303.44 1703.65 1307.93 Q1703.65 1310.06 1702.84 1311.98 Q1702.05 1313.88 1699.94 1316.47 Q1699.36 1317.14 1696.26 1320.36 Q1693.16 1323.55 1687.51 1329.32 Z" fill="#000000" fill-rule="evenodd" fill-opacity="1" /><path clip-path="url(#clip430)" d="M1713.69 1298.69 L1732.05 1298.69 L1732.05 1302.63 L1717.98 1302.63 L1717.98 1311.1 Q1718.99 1310.75 1720.01 1310.59 Q1721.03 1310.41 1722.05 1310.41 Q1727.84 1310.41 1731.22 1313.58 Q1734.6 1316.75 1734.6 1322.17 Q1734.6 1327.74 1731.12 1330.85 Q1727.65 1333.92 1721.33 1333.92 Q1719.16 1333.92 1716.89 1333.55 Q1714.64 1333.18 1712.23 1332.44 L1712.23 1327.74 Q1714.32 1328.88 1716.54 1329.43 Q1718.76 1329.99 1721.24 1329.99 Q1725.24 1329.99 1727.58 1327.88 Q1729.92 1325.78 1729.92 1322.17 Q1729.92 1318.55 1727.58 1316.45 Q1725.24 1314.34 1721.24 1314.34 Q1719.36 1314.34 1717.49 1314.76 Q1715.64 1315.18 1713.69 1316.05 L1713.69 1298.69 Z" fill="#000000" fill-rule="evenodd" fill-opacity="1" /><path clip-path="url(#clip430)" d="M1680.6 1261.53 Q1676.99 1261.53 1675.16 1265.1 Q1673.36 1268.64 1673.36 1275.77 Q1673.36 1282.88 1675.16 1286.44 Q1676.99 1289.98 1680.6 1289.98 Q1684.24 1289.98 1686.04 1286.44 Q1687.87 1282.88 1687.87 1275.77 Q1687.87 1268.64 1686.04 1265.1 Q1684.24 1261.53 1680.6 1261.53 M1680.6 1257.83 Q1686.41 1257.83 1689.47 1262.44 Q1692.55 1267.02 1692.55 1275.77 Q1692.55 1284.5 1689.47 1289.1 Q1686.41 1293.69 1680.6 1293.69 Q1674.79 1293.69 1671.71 1289.1 Q1668.66 1284.5 1668.66 1275.77 Q1668.66 1267.02 1671.71 1262.44 Q1674.79 1257.83 1680.6 1257.83 Z" fill="#000000" fill-rule="evenodd" fill-opacity="1" /><path clip-path="url(#clip430)" d="M1700.77 1287.14 L1705.65 1287.14 L1705.65 1293.02 L1700.77 1293.02 L1700.77 1287.14 Z" fill="#000000" fill-rule="evenodd" fill-opacity="1" /><path clip-path="url(#clip430)" d="M1725.83 1261.53 Q1722.22 1261.53 1720.4 1265.1 Q1718.59 1268.64 1718.59 1275.77 Q1718.59 1282.88 1720.4 1286.44 Q1722.22 1289.98 1725.83 1289.98 Q1729.47 1289.98 1731.27 1286.44 Q1733.1 1282.88 1733.1 1275.77 Q1733.1 1268.64 1731.27 1265.1 Q1729.47 1261.53 1725.83 1261.53 M1725.83 1257.83 Q1731.64 1257.83 1734.7 1262.44 Q1737.78 1267.02 1737.78 1275.77 Q1737.78 1284.5 1734.7 1289.1 Q1731.64 1293.69 1725.83 1293.69 Q1720.02 1293.69 1716.95 1289.1 Q1713.89 1284.5 1713.89 1275.77 Q1713.89 1267.02 1716.95 1262.44 Q1720.02 1257.83 1725.83 1257.83 Z" fill="#000000" fill-rule="evenodd" fill-opacity="1" /><path clip-path="url(#clip430)" d="M1756 1261.53 Q1752.39 1261.53 1750.56 1265.1 Q1748.75 1268.64 1748.75 1275.77 Q1748.75 1282.88 1750.56 1286.44 Q1752.39 1289.98 1756 1289.98 Q1759.63 1289.98 1761.44 1286.44 Q1763.27 1282.88 1763.27 1275.77 Q1763.27 1268.64 1761.44 1265.1 Q1759.63 1261.53 1756 1261.53 M1756 1257.83 Q1761.81 1257.83 1764.86 1262.44 Q1767.94 1267.02 1767.94 1275.77 Q1767.94 1284.5 1764.86 1289.1 Q1761.81 1293.69 1756 1293.69 Q1750.19 1293.69 1747.11 1289.1 Q1744.05 1284.5 1744.05 1275.77 Q1744.05 1267.02 1747.11 1262.44 Q1750.19 1257.83 1756 1257.83 Z" fill="#000000" fill-rule="evenodd" fill-opacity="1" /><path clip-path="url(#clip430)" d="M1776.2 1258.46 L1794.56 1258.46 L1794.56 1262.39 L1780.49 1262.39 L1780.49 1270.86 Q1781.51 1270.52 1782.52 1270.35 Q1783.54 1270.17 1784.56 1270.17 Q1790.35 1270.17 1793.73 1273.34 Q1797.11 1276.51 1797.11 1281.93 Q1797.11 1287.51 1793.64 1290.61 Q1790.16 1293.69 1783.84 1293.69 Q1781.67 1293.69 1779.4 1293.32 Q1777.15 1292.95 1774.75 1292.21 L1774.75 1287.51 Q1776.83 1288.64 1779.05 1289.2 Q1781.27 1289.75 1783.75 1289.75 Q1787.76 1289.75 1790.09 1287.65 Q1792.43 1285.54 1792.43 1281.93 Q1792.43 1278.32 1790.09 1276.21 Q1787.76 1274.1 1783.75 1274.1 Q1781.88 1274.1 1780 1274.52 Q1778.15 1274.94 1776.2 1275.82 L1776.2 1258.46 Z" fill="#000000" fill-rule="evenodd" fill-opacity="1" /><path clip-path="url(#clip430)" d="M1816.32 1261.53 Q1812.71 1261.53 1810.88 1265.1 Q1809.08 1268.64 1809.08 1275.77 Q1809.08 1282.88 1810.88 1286.44 Q1812.71 1289.98 1816.32 1289.98 Q1819.95 1289.98 1821.76 1286.44 Q1823.59 1282.88 1823.59 1275.77 Q1823.59 1268.64 1821.76 1265.1 Q1819.95 1261.53 1816.32 1261.53 M1816.32 1257.83 Q1822.13 1257.83 1825.19 1262.44 Q1828.26 1267.02 1828.26 1275.77 Q1828.26 1284.5 1825.19 1289.1 Q1822.13 1293.69 1816.32 1293.69 Q1810.51 1293.69 1807.43 1289.1 Q1804.38 1284.5 1804.38 1275.77 Q1804.38 1267.02 1807.43 1262.44 Q1810.51 1257.83 1816.32 1257.83 Z" fill="#000000" fill-rule="evenodd" fill-opacity="1" /><path clip-path="url(#clip430)" d="M1641.22 1440.64 L1648.12 1440.64 L1661.3 1460.18 L1674.38 1440.64 L1681.29 1440.64 L1664.48 1465.53 L1664.48 1488.16 L1658.02 1488.16 L1658.02 1465.53 L1641.22 1440.64 Z" fill="#000000" fill-rule="evenodd" fill-opacity="1" /><polyline clip-path="url(#clip432)" style="stroke:#000000; stroke-linecap:butt; stroke-linejoin:round; stroke-width:2; stroke-opacity:0.1; fill:none" points="
  347.69,1216.64 881.03,986.304 
  "/>
<polyline clip-path="url(#clip432)" style="stroke:#000000; stroke-linecap:butt; stroke-linejoin:round; stroke-width:2; stroke-opacity:0.1; fill:none" points="
  881.03,986.304 1804.8,1063.08 
  "/>
<polyline clip-path="url(#clip432)" style="stroke:#000000; stroke-linecap:butt; stroke-linejoin:round; stroke-width:2; stroke-opacity:0.1; fill:none" points="
  347.69,987.455 881.03,757.122 
  "/>
<polyline clip-path="url(#clip432)" style="stroke:#000000; stroke-linecap:butt; stroke-linejoin:round; stroke-width:2; stroke-opacity:0.1; fill:none" points="
  881.03,757.122 1804.8,833.9 
  "/>
<polyline clip-path="url(#clip432)" style="stroke:#000000; stroke-linecap:butt; stroke-linejoin:round; stroke-width:2; stroke-opacity:0.1; fill:none" points="
  347.69,758.274 881.03,527.941 
  "/>
<polyline clip-path="url(#clip432)" style="stroke:#000000; stroke-linecap:butt; stroke-linejoin:round; stroke-width:2; stroke-opacity:0.1; fill:none" points="
  881.03,527.941 1804.8,604.719 
  "/>
<polyline clip-path="url(#clip432)" style="stroke:#000000; stroke-linecap:butt; stroke-linejoin:round; stroke-width:2; stroke-opacity:0.1; fill:none" points="
  347.69,529.093 881.03,298.76 
  "/>
<polyline clip-path="url(#clip432)" style="stroke:#000000; stroke-linecap:butt; stroke-linejoin:round; stroke-width:2; stroke-opacity:0.1; fill:none" points="
  881.03,298.76 1804.8,375.537 
  "/>
<polyline clip-path="url(#clip430)" style="stroke:#000000; stroke-linecap:butt; stroke-linejoin:round; stroke-width:4; stroke-opacity:1; fill:none" points="
  347.69,1346.4 347.69,353.805 
  "/>
<polyline clip-path="url(#clip430)" style="stroke:#000000; stroke-linecap:butt; stroke-linejoin:round; stroke-width:4; stroke-opacity:1; fill:none" points="
  347.69,1216.64 354.09,1213.87 
  "/>
<polyline clip-path="url(#clip430)" style="stroke:#000000; stroke-linecap:butt; stroke-linejoin:round; stroke-width:4; stroke-opacity:1; fill:none" points="
  347.69,987.455 354.09,984.691 
  "/>
<polyline clip-path="url(#clip430)" style="stroke:#000000; stroke-linecap:butt; stroke-linejoin:round; stroke-width:4; stroke-opacity:1; fill:none" points="
  347.69,758.274 354.09,755.51 
  "/>
<polyline clip-path="url(#clip430)" style="stroke:#000000; stroke-linecap:butt; stroke-linejoin:round; stroke-width:4; stroke-opacity:1; fill:none" points="
  347.69,529.093 354.09,526.329 
  "/>
<path clip-path="url(#clip430)" d="M126.26 1217.09 L155.936 1217.09 L155.936 1221.02 L126.26 1221.02 L126.26 1217.09 Z" fill="#000000" fill-rule="evenodd" fill-opacity="1" /><path clip-path="url(#clip430)" d="M176.028 1202.44 Q172.417 1202.44 170.589 1206 Q168.783 1209.54 168.783 1216.67 Q168.783 1223.78 170.589 1227.34 Q172.417 1230.88 176.028 1230.88 Q179.663 1230.88 181.468 1227.34 Q183.297 1223.78 183.297 1216.67 Q183.297 1209.54 181.468 1206 Q179.663 1202.44 176.028 1202.44 M176.028 1198.73 Q181.839 1198.73 184.894 1203.34 Q187.973 1207.92 187.973 1216.67 Q187.973 1225.4 184.894 1230 Q181.839 1234.59 176.028 1234.59 Q170.218 1234.59 167.14 1230 Q164.084 1225.4 164.084 1216.67 Q164.084 1207.92 167.14 1203.34 Q170.218 1198.73 176.028 1198.73 Z" fill="#000000" fill-rule="evenodd" fill-opacity="1" /><path clip-path="url(#clip430)" d="M196.19 1228.04 L201.075 1228.04 L201.075 1233.92 L196.19 1233.92 L196.19 1228.04 Z" fill="#000000" fill-rule="evenodd" fill-opacity="1" /><path clip-path="url(#clip430)" d="M221.26 1202.44 Q217.649 1202.44 215.82 1206 Q214.014 1209.54 214.014 1216.67 Q214.014 1223.78 215.82 1227.34 Q217.649 1230.88 221.26 1230.88 Q224.894 1230.88 226.699 1227.34 Q228.528 1223.78 228.528 1216.67 Q228.528 1209.54 226.699 1206 Q224.894 1202.44 221.26 1202.44 M221.26 1198.73 Q227.07 1198.73 230.125 1203.34 Q233.204 1207.92 233.204 1216.67 Q233.204 1225.4 230.125 1230 Q227.07 1234.59 221.26 1234.59 Q215.449 1234.59 212.371 1230 Q209.315 1225.4 209.315 1216.67 Q209.315 1207.92 212.371 1203.34 Q215.449 1198.73 221.26 1198.73 Z" fill="#000000" fill-rule="evenodd" fill-opacity="1" /><path clip-path="url(#clip430)" d="M251.422 1202.44 Q247.81 1202.44 245.982 1206 Q244.176 1209.54 244.176 1216.67 Q244.176 1223.78 245.982 1227.34 Q247.81 1230.88 251.422 1230.88 Q255.056 1230.88 256.861 1227.34 Q258.69 1223.78 258.69 1216.67 Q258.69 1209.54 256.861 1206 Q255.056 1202.44 251.422 1202.44 M251.422 1198.73 Q257.232 1198.73 260.287 1203.34 Q263.366 1207.92 263.366 1216.67 Q263.366 1225.4 260.287 1230 Q257.232 1234.59 251.422 1234.59 Q245.611 1234.59 242.533 1230 Q239.477 1225.4 239.477 1216.67 Q239.477 1207.92 242.533 1203.34 Q245.611 1198.73 251.422 1198.73 Z" fill="#000000" fill-rule="evenodd" fill-opacity="1" /><path clip-path="url(#clip430)" d="M271.63 1199.36 L289.986 1199.36 L289.986 1203.29 L275.912 1203.29 L275.912 1211.76 Q276.931 1211.42 277.949 1211.25 Q278.968 1211.07 279.986 1211.07 Q285.773 1211.07 289.153 1214.24 Q292.532 1217.41 292.532 1222.83 Q292.532 1228.41 289.06 1231.51 Q285.588 1234.59 279.269 1234.59 Q277.093 1234.59 274.824 1234.22 Q272.579 1233.85 270.171 1233.11 L270.171 1228.41 Q272.255 1229.54 274.477 1230.1 Q276.699 1230.65 279.176 1230.65 Q283.181 1230.65 285.519 1228.55 Q287.857 1226.44 287.857 1222.83 Q287.857 1219.22 285.519 1217.11 Q283.181 1215 279.176 1215 Q277.301 1215 275.426 1215.42 Q273.574 1215.84 271.63 1216.72 L271.63 1199.36 Z" fill="#000000" fill-rule="evenodd" fill-opacity="1" /><path clip-path="url(#clip430)" d="M311.745 1202.44 Q308.134 1202.44 306.305 1206 Q304.5 1209.54 304.5 1216.67 Q304.5 1223.78 306.305 1227.34 Q308.134 1230.88 311.745 1230.88 Q315.38 1230.88 317.185 1227.34 Q319.014 1223.78 319.014 1216.67 Q319.014 1209.54 317.185 1206 Q315.38 1202.44 311.745 1202.44 M311.745 1198.73 Q317.555 1198.73 320.611 1203.34 Q323.69 1207.92 323.69 1216.67 Q323.69 1225.4 320.611 1230 Q317.555 1234.59 311.745 1234.59 Q305.935 1234.59 302.856 1230 Q299.801 1225.4 299.801 1216.67 Q299.801 1207.92 302.856 1203.34 Q305.935 1198.73 311.745 1198.73 Z" fill="#000000" fill-rule="evenodd" fill-opacity="1" /><path clip-path="url(#clip430)" d="M127.256 987.907 L156.931 987.907 L156.931 991.842 L127.256 991.842 L127.256 987.907 Z" fill="#000000" fill-rule="evenodd" fill-opacity="1" /><path clip-path="url(#clip430)" d="M177.024 973.254 Q173.413 973.254 171.584 976.819 Q169.778 980.361 169.778 987.49 Q169.778 994.597 171.584 998.161 Q173.413 1001.7 177.024 1001.7 Q180.658 1001.7 182.464 998.161 Q184.292 994.597 184.292 987.49 Q184.292 980.361 182.464 976.819 Q180.658 973.254 177.024 973.254 M177.024 969.55 Q182.834 969.55 185.889 974.157 Q188.968 978.74 188.968 987.49 Q188.968 996.217 185.889 1000.82 Q182.834 1005.41 177.024 1005.41 Q171.214 1005.41 168.135 1000.82 Q165.079 996.217 165.079 987.49 Q165.079 978.74 168.135 974.157 Q171.214 969.55 177.024 969.55 Z" fill="#000000" fill-rule="evenodd" fill-opacity="1" /><path clip-path="url(#clip430)" d="M197.186 998.856 L202.07 998.856 L202.07 1004.74 L197.186 1004.74 L197.186 998.856 Z" fill="#000000" fill-rule="evenodd" fill-opacity="1" /><path clip-path="url(#clip430)" d="M222.255 973.254 Q218.644 973.254 216.815 976.819 Q215.01 980.361 215.01 987.49 Q215.01 994.597 216.815 998.161 Q218.644 1001.7 222.255 1001.7 Q225.889 1001.7 227.695 998.161 Q229.523 994.597 229.523 987.49 Q229.523 980.361 227.695 976.819 Q225.889 973.254 222.255 973.254 M222.255 969.55 Q228.065 969.55 231.121 974.157 Q234.199 978.74 234.199 987.49 Q234.199 996.217 231.121 1000.82 Q228.065 1005.41 222.255 1005.41 Q216.445 1005.41 213.366 1000.82 Q210.311 996.217 210.311 987.49 Q210.311 978.74 213.366 974.157 Q216.445 969.55 222.255 969.55 Z" fill="#000000" fill-rule="evenodd" fill-opacity="1" /><path clip-path="url(#clip430)" d="M252.417 973.254 Q248.806 973.254 246.977 976.819 Q245.172 980.361 245.172 987.49 Q245.172 994.597 246.977 998.161 Q248.806 1001.7 252.417 1001.7 Q256.051 1001.7 257.857 998.161 Q259.685 994.597 259.685 987.49 Q259.685 980.361 257.857 976.819 Q256.051 973.254 252.417 973.254 M252.417 969.55 Q258.227 969.55 261.283 974.157 Q264.361 978.74 264.361 987.49 Q264.361 996.217 261.283 1000.82 Q258.227 1005.41 252.417 1005.41 Q246.607 1005.41 243.528 1000.82 Q240.473 996.217 240.473 987.49 Q240.473 978.74 243.528 974.157 Q246.607 969.55 252.417 969.55 Z" fill="#000000" fill-rule="evenodd" fill-opacity="1" /><path clip-path="url(#clip430)" d="M276.607 1000.8 L292.926 1000.8 L292.926 1004.74 L270.982 1004.74 L270.982 1000.8 Q273.644 998.046 278.227 993.416 Q282.833 988.763 284.014 987.421 Q286.259 984.898 287.139 983.161 Q288.042 981.402 288.042 979.712 Q288.042 976.958 286.097 975.222 Q284.176 973.486 281.074 973.486 Q278.875 973.486 276.421 974.249 Q273.991 975.013 271.213 976.564 L271.213 971.842 Q274.037 970.708 276.491 970.129 Q278.945 969.55 280.982 969.55 Q286.352 969.55 289.546 972.236 Q292.741 974.921 292.741 979.411 Q292.741 981.541 291.931 983.462 Q291.144 985.361 289.037 987.953 Q288.458 988.624 285.357 991.842 Q282.255 995.036 276.607 1000.8 Z" fill="#000000" fill-rule="evenodd" fill-opacity="1" /><path clip-path="url(#clip430)" d="M302.787 970.175 L321.143 970.175 L321.143 974.111 L307.069 974.111 L307.069 982.583 Q308.088 982.236 309.106 982.073 Q310.125 981.888 311.143 981.888 Q316.93 981.888 320.31 985.06 Q323.69 988.231 323.69 993.647 Q323.69 999.226 320.217 1002.33 Q316.745 1005.41 310.426 1005.41 Q308.25 1005.41 305.981 1005.04 Q303.736 1004.67 301.329 1003.93 L301.329 999.226 Q303.412 1000.36 305.634 1000.92 Q307.856 1001.47 310.333 1001.47 Q314.338 1001.47 316.676 999.365 Q319.014 997.259 319.014 993.647 Q319.014 990.036 316.676 987.93 Q314.338 985.823 310.333 985.823 Q308.458 985.823 306.583 986.24 Q304.731 986.657 302.787 987.536 L302.787 970.175 Z" fill="#000000" fill-rule="evenodd" fill-opacity="1" /><path clip-path="url(#clip430)" d="M176.028 744.073 Q172.417 744.073 170.589 747.637 Q168.783 751.179 168.783 758.309 Q168.783 765.415 170.589 768.98 Q172.417 772.522 176.028 772.522 Q179.663 772.522 181.468 768.98 Q183.297 765.415 183.297 758.309 Q183.297 751.179 181.468 747.637 Q179.663 744.073 176.028 744.073 M176.028 740.369 Q181.839 740.369 184.894 744.975 Q187.973 749.559 187.973 758.309 Q187.973 767.035 184.894 771.642 Q181.839 776.225 176.028 776.225 Q170.218 776.225 167.14 771.642 Q164.084 767.035 164.084 758.309 Q164.084 749.559 167.14 744.975 Q170.218 740.369 176.028 740.369 Z" fill="#000000" fill-rule="evenodd" fill-opacity="1" /><path clip-path="url(#clip430)" d="M196.19 769.674 L201.075 769.674 L201.075 775.554 L196.19 775.554 L196.19 769.674 Z" fill="#000000" fill-rule="evenodd" fill-opacity="1" /><path clip-path="url(#clip430)" d="M221.26 744.073 Q217.649 744.073 215.82 747.637 Q214.014 751.179 214.014 758.309 Q214.014 765.415 215.82 768.98 Q217.649 772.522 221.26 772.522 Q224.894 772.522 226.699 768.98 Q228.528 765.415 228.528 758.309 Q228.528 751.179 226.699 747.637 Q224.894 744.073 221.26 744.073 M221.26 740.369 Q227.07 740.369 230.125 744.975 Q233.204 749.559 233.204 758.309 Q233.204 767.035 230.125 771.642 Q227.07 776.225 221.26 776.225 Q215.449 776.225 212.371 771.642 Q209.315 767.035 209.315 758.309 Q209.315 749.559 212.371 744.975 Q215.449 740.369 221.26 740.369 Z" fill="#000000" fill-rule="evenodd" fill-opacity="1" /><path clip-path="url(#clip430)" d="M251.422 744.073 Q247.81 744.073 245.982 747.637 Q244.176 751.179 244.176 758.309 Q244.176 765.415 245.982 768.98 Q247.81 772.522 251.422 772.522 Q255.056 772.522 256.861 768.98 Q258.69 765.415 258.69 758.309 Q258.69 751.179 256.861 747.637 Q255.056 744.073 251.422 744.073 M251.422 740.369 Q257.232 740.369 260.287 744.975 Q263.366 749.559 263.366 758.309 Q263.366 767.035 260.287 771.642 Q257.232 776.225 251.422 776.225 Q245.611 776.225 242.533 771.642 Q239.477 767.035 239.477 758.309 Q239.477 749.559 242.533 744.975 Q245.611 740.369 251.422 740.369 Z" fill="#000000" fill-rule="evenodd" fill-opacity="1" /><path clip-path="url(#clip430)" d="M281.583 744.073 Q277.972 744.073 276.144 747.637 Q274.338 751.179 274.338 758.309 Q274.338 765.415 276.144 768.98 Q277.972 772.522 281.583 772.522 Q285.218 772.522 287.023 768.98 Q288.852 765.415 288.852 758.309 Q288.852 751.179 287.023 747.637 Q285.218 744.073 281.583 744.073 M281.583 740.369 Q287.394 740.369 290.449 744.975 Q293.528 749.559 293.528 758.309 Q293.528 767.035 290.449 771.642 Q287.394 776.225 281.583 776.225 Q275.773 776.225 272.695 771.642 Q269.639 767.035 269.639 758.309 Q269.639 749.559 272.695 744.975 Q275.773 740.369 281.583 740.369 Z" fill="#000000" fill-rule="evenodd" fill-opacity="1" /><path clip-path="url(#clip430)" d="M311.745 744.073 Q308.134 744.073 306.305 747.637 Q304.5 751.179 304.5 758.309 Q304.5 765.415 306.305 768.98 Q308.134 772.522 311.745 772.522 Q315.38 772.522 317.185 768.98 Q319.014 765.415 319.014 758.309 Q319.014 751.179 317.185 747.637 Q315.38 744.073 311.745 744.073 M311.745 740.369 Q317.555 740.369 320.611 744.975 Q323.69 749.559 323.69 758.309 Q323.69 767.035 320.611 771.642 Q317.555 776.225 311.745 776.225 Q305.935 776.225 302.856 771.642 Q299.801 767.035 299.801 758.309 Q299.801 749.559 302.856 744.975 Q305.935 740.369 311.745 740.369 Z" fill="#000000" fill-rule="evenodd" fill-opacity="1" /><path clip-path="url(#clip430)" d="M177.024 514.891 Q173.413 514.891 171.584 518.456 Q169.778 521.998 169.778 529.127 Q169.778 536.234 171.584 539.799 Q173.413 543.34 177.024 543.34 Q180.658 543.34 182.464 539.799 Q184.292 536.234 184.292 529.127 Q184.292 521.998 182.464 518.456 Q180.658 514.891 177.024 514.891 M177.024 511.188 Q182.834 511.188 185.889 515.794 Q188.968 520.377 188.968 529.127 Q188.968 537.854 185.889 542.461 Q182.834 547.044 177.024 547.044 Q171.214 547.044 168.135 542.461 Q165.079 537.854 165.079 529.127 Q165.079 520.377 168.135 515.794 Q171.214 511.188 177.024 511.188 Z" fill="#000000" fill-rule="evenodd" fill-opacity="1" /><path clip-path="url(#clip430)" d="M197.186 540.493 L202.07 540.493 L202.07 546.373 L197.186 546.373 L197.186 540.493 Z" fill="#000000" fill-rule="evenodd" fill-opacity="1" /><path clip-path="url(#clip430)" d="M222.255 514.891 Q218.644 514.891 216.815 518.456 Q215.01 521.998 215.01 529.127 Q215.01 536.234 216.815 539.799 Q218.644 543.34 222.255 543.34 Q225.889 543.34 227.695 539.799 Q229.523 536.234 229.523 529.127 Q229.523 521.998 227.695 518.456 Q225.889 514.891 222.255 514.891 M222.255 511.188 Q228.065 511.188 231.121 515.794 Q234.199 520.377 234.199 529.127 Q234.199 537.854 231.121 542.461 Q228.065 547.044 222.255 547.044 Q216.445 547.044 213.366 542.461 Q210.311 537.854 210.311 529.127 Q210.311 520.377 213.366 515.794 Q216.445 511.188 222.255 511.188 Z" fill="#000000" fill-rule="evenodd" fill-opacity="1" /><path clip-path="url(#clip430)" d="M252.417 514.891 Q248.806 514.891 246.977 518.456 Q245.172 521.998 245.172 529.127 Q245.172 536.234 246.977 539.799 Q248.806 543.34 252.417 543.34 Q256.051 543.34 257.857 539.799 Q259.685 536.234 259.685 529.127 Q259.685 521.998 257.857 518.456 Q256.051 514.891 252.417 514.891 M252.417 511.188 Q258.227 511.188 261.283 515.794 Q264.361 520.377 264.361 529.127 Q264.361 537.854 261.283 542.461 Q258.227 547.044 252.417 547.044 Q246.607 547.044 243.528 542.461 Q240.473 537.854 240.473 529.127 Q240.473 520.377 243.528 515.794 Q246.607 511.188 252.417 511.188 Z" fill="#000000" fill-rule="evenodd" fill-opacity="1" /><path clip-path="url(#clip430)" d="M276.607 542.437 L292.926 542.437 L292.926 546.373 L270.982 546.373 L270.982 542.437 Q273.644 539.683 278.227 535.053 Q282.833 530.4 284.014 529.058 Q286.259 526.535 287.139 524.799 Q288.042 523.039 288.042 521.35 Q288.042 518.595 286.097 516.859 Q284.176 515.123 281.074 515.123 Q278.875 515.123 276.421 515.887 Q273.991 516.65 271.213 518.201 L271.213 513.479 Q274.037 512.345 276.491 511.766 Q278.945 511.188 280.982 511.188 Q286.352 511.188 289.546 513.873 Q292.741 516.558 292.741 521.049 Q292.741 523.178 291.931 525.1 Q291.144 526.998 289.037 529.59 Q288.458 530.262 285.357 533.479 Q282.255 536.674 276.607 542.437 Z" fill="#000000" fill-rule="evenodd" fill-opacity="1" /><path clip-path="url(#clip430)" d="M302.787 511.813 L321.143 511.813 L321.143 515.748 L307.069 515.748 L307.069 524.22 Q308.088 523.873 309.106 523.711 Q310.125 523.525 311.143 523.525 Q316.93 523.525 320.31 526.697 Q323.69 529.868 323.69 535.285 Q323.69 540.863 320.217 543.965 Q316.745 547.044 310.426 547.044 Q308.25 547.044 305.981 546.673 Q303.736 546.303 301.329 545.562 L301.329 540.863 Q303.412 541.998 305.634 542.553 Q307.856 543.109 310.333 543.109 Q314.338 543.109 316.676 541.002 Q319.014 538.896 319.014 535.285 Q319.014 531.674 316.676 529.567 Q314.338 527.461 310.333 527.461 Q308.458 527.461 306.583 527.877 Q304.731 528.294 302.787 529.174 L302.787 511.813 Z" fill="#000000" fill-rule="evenodd" fill-opacity="1" /><path clip-path="url(#clip430)" d="M16.4842 868.771 L16.4842 831.436 L21.3858 831.436 L58.5933 861.482 L58.5933 830.704 L64.0042 830.704 L64.0042 869.503 L59.1026 869.503 L21.895 839.457 L21.895 868.771 L16.4842 868.771 Z" fill="#000000" fill-rule="evenodd" fill-opacity="1" /><path clip-path="url(#clip430)" d="M544.444 12.096 L552.627 12.096 L552.627 36.8875 L582.36 36.8875 L582.36 12.096 L590.543 12.096 L590.543 72.576 L582.36 72.576 L582.36 43.7741 L552.627 43.7741 L552.627 72.576 L544.444 72.576 L544.444 12.096 Z" fill="#000000" fill-rule="evenodd" fill-opacity="1" /><path clip-path="url(#clip430)" d="M627.123 49.7694 Q618.089 49.7694 614.605 51.8354 Q611.122 53.9013 611.122 58.8839 Q611.122 62.8538 613.714 65.2034 Q616.347 67.5124 620.844 67.5124 Q627.042 67.5124 630.769 63.1374 Q634.536 58.7219 634.536 51.4303 L634.536 49.7694 L627.123 49.7694 M641.99 46.6907 L641.99 72.576 L634.536 72.576 L634.536 65.6895 Q631.984 69.8214 628.176 71.8063 Q624.368 73.7508 618.859 73.7508 Q611.891 73.7508 607.759 69.8619 Q603.668 65.9325 603.668 59.3701 Q603.668 51.7138 608.772 47.825 Q613.917 43.9361 624.085 43.9361 L634.536 43.9361 L634.536 43.2069 Q634.536 38.0623 631.133 35.2672 Q627.771 32.4315 621.654 32.4315 Q617.765 32.4315 614.079 33.3632 Q610.392 34.295 606.99 36.1584 L606.99 29.2718 Q611.081 27.692 614.929 26.9223 Q618.778 26.1121 622.424 26.1121 Q632.267 26.1121 637.128 31.2163 Q641.99 36.3204 641.99 46.6907 Z" fill="#000000" fill-rule="evenodd" fill-opacity="1" /><path clip-path="url(#clip430)" d="M657.342 9.54393 L664.796 9.54393 L664.796 72.576 L657.342 72.576 L657.342 9.54393 Z" fill="#000000" fill-rule="evenodd" fill-opacity="1" /><path clip-path="url(#clip430)" d="M697.973 32.4315 Q691.978 32.4315 688.494 37.1306 Q685.01 41.7891 685.01 49.9314 Q685.01 58.0738 688.453 62.7728 Q691.937 67.4314 697.973 67.4314 Q703.928 67.4314 707.412 62.7323 Q710.895 58.0333 710.895 49.9314 Q710.895 41.8701 707.412 37.1711 Q703.928 32.4315 697.973 32.4315 M697.973 26.1121 Q707.695 26.1121 713.245 32.4315 Q718.795 38.7509 718.795 49.9314 Q718.795 61.0714 713.245 67.4314 Q707.695 73.7508 697.973 73.7508 Q688.21 73.7508 682.661 67.4314 Q677.151 61.0714 677.151 49.9314 Q677.151 38.7509 682.661 32.4315 Q688.21 26.1121 697.973 26.1121 Z" fill="#000000" fill-rule="evenodd" fill-opacity="1" /><path clip-path="url(#clip430)" d="M775.102 32.4315 Q769.107 32.4315 765.623 37.1306 Q762.139 41.7891 762.139 49.9314 Q762.139 58.0738 765.583 62.7728 Q769.066 67.4314 775.102 67.4314 Q781.057 67.4314 784.541 62.7323 Q788.025 58.0333 788.025 49.9314 Q788.025 41.8701 784.541 37.1711 Q781.057 32.4315 775.102 32.4315 M775.102 26.1121 Q784.824 26.1121 790.374 32.4315 Q795.924 38.7509 795.924 49.9314 Q795.924 61.0714 790.374 67.4314 Q784.824 73.7508 775.102 73.7508 Q765.34 73.7508 759.79 67.4314 Q754.281 61.0714 754.281 49.9314 Q754.281 38.7509 759.79 32.4315 Q765.34 26.1121 775.102 26.1121 Z" fill="#000000" fill-rule="evenodd" fill-opacity="1" /><path clip-path="url(#clip430)" d="M834.57 34.1734 Q833.314 33.4443 831.815 33.1202 Q830.357 32.7556 828.574 32.7556 Q822.255 32.7556 818.852 36.8875 Q815.49 40.9789 815.49 48.6757 L815.49 72.576 L807.996 72.576 L807.996 27.2059 L815.49 27.2059 L815.49 34.2544 Q817.839 30.1225 821.607 28.1376 Q825.374 26.1121 830.762 26.1121 Q831.531 26.1121 832.463 26.2337 Q833.395 26.3147 834.529 26.5172 L834.57 34.1734 Z" fill="#000000" fill-rule="evenodd" fill-opacity="1" /><path clip-path="url(#clip430)" d="M874.957 49.9314 Q874.957 41.7081 871.554 37.0496 Q868.192 32.3505 862.278 32.3505 Q856.363 32.3505 852.961 37.0496 Q849.598 41.7081 849.598 49.9314 Q849.598 58.1548 852.961 62.8538 Q856.363 67.5124 862.278 67.5124 Q868.192 67.5124 871.554 62.8538 Q874.957 58.1548 874.957 49.9314 M849.598 34.0924 Q851.948 30.0415 855.513 28.0971 Q859.118 26.1121 864.101 26.1121 Q872.364 26.1121 877.509 32.6746 Q882.694 39.2371 882.694 49.9314 Q882.694 60.6258 877.509 67.1883 Q872.364 73.7508 864.101 73.7508 Q859.118 73.7508 855.513 71.8063 Q851.948 69.8214 849.598 65.7705 L849.598 72.576 L842.104 72.576 L842.104 9.54393 L849.598 9.54393 L849.598 34.0924 Z" fill="#000000" fill-rule="evenodd" fill-opacity="1" /><path clip-path="url(#clip430)" d="M895.05 27.2059 L902.503 27.2059 L902.503 72.576 L895.05 72.576 L895.05 27.2059 M895.05 9.54393 L902.503 9.54393 L902.503 18.9825 L895.05 18.9825 L895.05 9.54393 Z" fill="#000000" fill-rule="evenodd" fill-opacity="1" /><path clip-path="url(#clip430)" d="M925.472 14.324 L925.472 27.2059 L940.825 27.2059 L940.825 32.9987 L925.472 32.9987 L925.472 57.6282 Q925.472 63.1779 926.971 64.7578 Q928.51 66.3376 933.169 66.3376 L940.825 66.3376 L940.825 72.576 L933.169 72.576 Q924.54 72.576 921.259 69.3758 Q917.978 66.1351 917.978 57.6282 L917.978 32.9987 L912.509 32.9987 L912.509 27.2059 L917.978 27.2059 L917.978 14.324 L925.472 14.324 Z" fill="#000000" fill-rule="evenodd" fill-opacity="1" /><path clip-path="url(#clip430)" d="M999.968 9.54393 L999.968 15.7418 L992.838 15.7418 Q988.828 15.7418 987.248 17.3622 Q985.709 18.9825 985.709 23.1955 L985.709 27.2059 L997.983 27.2059 L997.983 32.9987 L985.709 32.9987 L985.709 72.576 L978.215 72.576 L978.215 32.9987 L971.085 32.9987 L971.085 27.2059 L978.215 27.2059 L978.215 24.0462 Q978.215 16.471 981.739 13.0277 Q985.263 9.54393 992.919 9.54393 L999.968 9.54393 Z" fill="#000000" fill-rule="evenodd" fill-opacity="1" /><path clip-path="url(#clip430)" d="M1026.83 49.7694 Q1017.79 49.7694 1014.31 51.8354 Q1010.82 53.9013 1010.82 58.8839 Q1010.82 62.8538 1013.42 65.2034 Q1016.05 67.5124 1020.55 67.5124 Q1026.74 67.5124 1030.47 63.1374 Q1034.24 58.7219 1034.24 51.4303 L1034.24 49.7694 L1026.83 49.7694 M1041.69 46.6907 L1041.69 72.576 L1034.24 72.576 L1034.24 65.6895 Q1031.69 69.8214 1027.88 71.8063 Q1024.07 73.7508 1018.56 73.7508 Q1011.59 73.7508 1007.46 69.8619 Q1003.37 65.9325 1003.37 59.3701 Q1003.37 51.7138 1008.47 47.825 Q1013.62 43.9361 1023.79 43.9361 L1034.24 43.9361 L1034.24 43.2069 Q1034.24 38.0623 1030.84 35.2672 Q1027.47 32.4315 1021.36 32.4315 Q1017.47 32.4315 1013.78 33.3632 Q1010.1 34.295 1006.69 36.1584 L1006.69 29.2718 Q1010.78 27.692 1014.63 26.9223 Q1018.48 26.1121 1022.13 26.1121 Q1031.97 26.1121 1036.83 31.2163 Q1041.69 36.3204 1041.69 46.6907 Z" fill="#000000" fill-rule="evenodd" fill-opacity="1" /><path clip-path="url(#clip430)" d="M1092.37 35.9153 Q1095.16 30.8922 1099.05 28.5022 Q1102.94 26.1121 1108.21 26.1121 Q1115.3 26.1121 1119.15 31.0947 Q1122.99 36.0368 1122.99 45.1919 L1122.99 72.576 L1115.5 72.576 L1115.5 45.4349 Q1115.5 38.913 1113.19 35.7533 Q1110.88 32.5936 1106.14 32.5936 Q1100.35 32.5936 1096.99 36.4419 Q1093.62 40.2903 1093.62 46.9338 L1093.62 72.576 L1086.13 72.576 L1086.13 45.4349 Q1086.13 38.8725 1083.82 35.7533 Q1081.51 32.5936 1076.69 32.5936 Q1070.98 32.5936 1067.62 36.4824 Q1064.26 40.3308 1064.26 46.9338 L1064.26 72.576 L1056.76 72.576 L1056.76 27.2059 L1064.26 27.2059 L1064.26 34.2544 Q1066.81 30.082 1070.37 28.0971 Q1073.94 26.1121 1078.84 26.1121 Q1083.78 26.1121 1087.22 28.6237 Q1090.71 31.1352 1092.37 35.9153 Z" fill="#000000" fill-rule="evenodd" fill-opacity="1" /><path clip-path="url(#clip430)" d="M1137.86 27.2059 L1145.31 27.2059 L1145.31 72.576 L1137.86 72.576 L1137.86 27.2059 M1137.86 9.54393 L1145.31 9.54393 L1145.31 18.9825 L1137.86 18.9825 L1137.86 9.54393 Z" fill="#000000" fill-rule="evenodd" fill-opacity="1" /><path clip-path="url(#clip430)" d="M1160.91 9.54393 L1168.36 9.54393 L1168.36 72.576 L1160.91 72.576 L1160.91 9.54393 Z" fill="#000000" fill-rule="evenodd" fill-opacity="1" /><path clip-path="url(#clip430)" d="M1202.84 76.7889 Q1199.68 84.8907 1196.68 87.3618 Q1193.68 89.8329 1188.66 89.8329 L1182.7 89.8329 L1182.7 83.5945 L1187.08 83.5945 Q1190.16 83.5945 1191.86 82.1361 Q1193.56 80.6778 1195.63 75.2496 L1196.96 71.8468 L1178.61 27.2059 L1186.51 27.2059 L1200.69 62.6918 L1214.87 27.2059 L1222.77 27.2059 L1202.84 76.7889 Z" fill="#000000" fill-rule="evenodd" fill-opacity="1" /><path clip-path="url(#clip430)" d="M1280.05 49.7694 Q1271.01 49.7694 1267.53 51.8354 Q1264.05 53.9013 1264.05 58.8839 Q1264.05 62.8538 1266.64 65.2034 Q1269.27 67.5124 1273.77 67.5124 Q1279.97 67.5124 1283.69 63.1374 Q1287.46 58.7219 1287.46 51.4303 L1287.46 49.7694 L1280.05 49.7694 M1294.91 46.6907 L1294.91 72.576 L1287.46 72.576 L1287.46 65.6895 Q1284.91 69.8214 1281.1 71.8063 Q1277.29 73.7508 1271.78 73.7508 Q1264.82 73.7508 1260.68 69.8619 Q1256.59 65.9325 1256.59 59.3701 Q1256.59 51.7138 1261.7 47.825 Q1266.84 43.9361 1277.01 43.9361 L1287.46 43.9361 L1287.46 43.2069 Q1287.46 38.0623 1284.06 35.2672 Q1280.7 32.4315 1274.58 32.4315 Q1270.69 32.4315 1267 33.3632 Q1263.32 34.295 1259.91 36.1584 L1259.91 29.2718 Q1264.01 27.692 1267.85 26.9223 Q1271.7 26.1121 1275.35 26.1121 Q1285.19 26.1121 1290.05 31.2163 Q1294.91 36.3204 1294.91 46.6907 Z" fill="#000000" fill-rule="evenodd" fill-opacity="1" /><path clip-path="url(#clip430)" d="M1342.84 49.9314 Q1342.84 41.7081 1339.43 37.0496 Q1336.07 32.3505 1330.16 32.3505 Q1324.24 32.3505 1320.84 37.0496 Q1317.48 41.7081 1317.48 49.9314 Q1317.48 58.1548 1320.84 62.8538 Q1324.24 67.5124 1330.16 67.5124 Q1336.07 67.5124 1339.43 62.8538 Q1342.84 58.1548 1342.84 49.9314 M1317.48 34.0924 Q1319.83 30.0415 1323.39 28.0971 Q1327 26.1121 1331.98 26.1121 Q1340.24 26.1121 1345.39 32.6746 Q1350.57 39.2371 1350.57 49.9314 Q1350.57 60.6258 1345.39 67.1883 Q1340.24 73.7508 1331.98 73.7508 Q1327 73.7508 1323.39 71.8063 Q1319.83 69.8214 1317.48 65.7705 L1317.48 72.576 L1309.98 72.576 L1309.98 9.54393 L1317.48 9.54393 L1317.48 34.0924 Z" fill="#000000" fill-rule="evenodd" fill-opacity="1" /><path clip-path="url(#clip430)" d="M1380.51 32.4315 Q1374.51 32.4315 1371.03 37.1306 Q1367.55 41.7891 1367.55 49.9314 Q1367.55 58.0738 1370.99 62.7728 Q1374.47 67.4314 1380.51 67.4314 Q1386.46 67.4314 1389.95 62.7323 Q1393.43 58.0333 1393.43 49.9314 Q1393.43 41.8701 1389.95 37.1711 Q1386.46 32.4315 1380.51 32.4315 M1380.51 26.1121 Q1390.23 26.1121 1395.78 32.4315 Q1401.33 38.7509 1401.33 49.9314 Q1401.33 61.0714 1395.78 67.4314 Q1390.23 73.7508 1380.51 73.7508 Q1370.75 73.7508 1365.2 67.4314 Q1359.69 61.0714 1359.69 49.9314 Q1359.69 38.7509 1365.2 32.4315 Q1370.75 26.1121 1380.51 26.1121 Z" fill="#000000" fill-rule="evenodd" fill-opacity="1" /><path clip-path="url(#clip430)" d="M1412.92 54.671 L1412.92 27.2059 L1420.37 27.2059 L1420.37 54.3874 Q1420.37 60.8284 1422.88 64.0691 Q1425.39 67.2693 1430.42 67.2693 Q1436.45 67.2693 1439.94 63.421 Q1443.46 59.5726 1443.46 52.9291 L1443.46 27.2059 L1450.91 27.2059 L1450.91 72.576 L1443.46 72.576 L1443.46 65.6084 Q1440.75 69.7404 1437.14 71.7658 Q1433.58 73.7508 1428.84 73.7508 Q1421.02 73.7508 1416.97 68.8897 Q1412.92 64.0286 1412.92 54.671 M1431.67 26.1121 L1431.67 26.1121 Z" fill="#000000" fill-rule="evenodd" fill-opacity="1" /><path clip-path="url(#clip430)" d="M1473.64 14.324 L1473.64 27.2059 L1488.99 27.2059 L1488.99 32.9987 L1473.64 32.9987 L1473.64 57.6282 Q1473.64 63.1779 1475.14 64.7578 Q1476.68 66.3376 1481.34 66.3376 L1488.99 66.3376 L1488.99 72.576 L1481.34 72.576 Q1472.71 72.576 1469.43 69.3758 Q1466.15 66.1351 1466.15 57.6282 L1466.15 32.9987 L1460.68 32.9987 L1460.68 27.2059 L1466.15 27.2059 L1466.15 14.324 L1473.64 14.324 Z" fill="#000000" fill-rule="evenodd" fill-opacity="1" /><path clip-path="url(#clip430)" d="M1525.49 12.096 L1533.67 12.096 L1533.67 65.6895 L1563.12 65.6895 L1563.12 72.576 L1525.49 72.576 L1525.49 12.096 Z" fill="#000000" fill-rule="evenodd" fill-opacity="1" /><path clip-path="url(#clip430)" d="M1579.49 65.6895 L1608.05 65.6895 L1608.05 72.576 L1569.65 72.576 L1569.65 65.6895 Q1574.31 60.8689 1582.33 52.7671 Q1590.39 44.6248 1592.45 42.2752 Q1596.38 37.8598 1597.92 34.8216 Q1599.5 31.7429 1599.5 28.7857 Q1599.5 23.9651 1596.1 20.927 Q1592.74 17.8888 1587.31 17.8888 Q1583.46 17.8888 1579.17 19.2256 Q1574.91 20.5624 1570.05 23.2765 L1570.05 15.0127 Q1574.99 13.0277 1579.29 12.015 Q1583.58 11.0023 1587.15 11.0023 Q1596.54 11.0023 1602.13 15.7013 Q1607.73 20.4004 1607.73 28.2591 Q1607.73 31.9859 1606.31 35.3482 Q1604.93 38.6699 1601.24 43.2069 Q1600.23 44.3817 1594.8 50.0125 Q1589.37 55.6027 1579.49 65.6895 Z" fill="#000000" fill-rule="evenodd" fill-opacity="1" /><circle clip-path="url(#clip432)" cx="1050.45" cy="679.36" r="14" fill="#009af9" fill-rule="evenodd" fill-opacity="1" stroke="#000000" stroke-opacity="1" stroke-width="3.2"/>
<path clip-path="url(#clip432)" d="M640.49 661.287 L626.634 653.287 L626.634 637.287 L640.49 629.287 L654.346 637.287 L654.346 653.287 Z" fill="#800080" fill-rule="evenodd" fill-opacity="1" stroke="#000000" stroke-opacity="1" stroke-width="3.2"/>
<path clip-path="url(#clip432)" d="M1447.15 697.661 L1447.15 729.661 L1479.15 729.661 L1479.15 697.661 L1447.15 697.661 Z" fill="#800080" fill-rule="evenodd" fill-opacity="1" stroke="#000000" stroke-opacity="1" stroke-width="3.2"/>
<polyline clip-path="url(#clip432)" style="stroke:#000000; stroke-linecap:butt; stroke-linejoin:round; stroke-width:4; stroke-opacity:1; fill:none" points="
  1511.97,802.45 1501.72,806.684 1491.18,810.642 1480.42,814.311 1469.46,817.678 1458.34,820.731 1447.11,823.457 1435.82,825.846 1424.5,827.889 1413.19,829.578 
  1401.96,830.905 1390.84,831.865 1379.87,832.452 1369.1,832.663 1358.57,832.495 1348.34,831.947 1338.44,831.018 1328.91,829.71 1319.79,828.025 1311.13,825.965 
  1302.96,823.536 1295.33,820.743 1288.25,817.593 1281.78,814.093 1275.93,810.254 1270.74,806.084 1266.23,801.595 1262.43,796.8 1259.35,791.712 1257.03,786.346 
  1255.47,780.719 1254.68,774.847 1254.67,768.75 1255.46,762.446 1257.04,755.956 1259.4,749.304 1262.55,742.514 1266.47,735.609 1271.15,728.617 1276.56,721.566 
  1282.68,714.486 1289.48,707.406 1296.93,700.359 1304.98,693.377 1313.59,686.495 1322.71,679.746 1332.29,673.166 1342.28,666.789 1352.61,660.65 1363.22,654.78 
  1374.06,649.213 1385.06,643.977 1396.17,639.099 1407.33,634.605 1418.49,630.515 1429.61,626.847 1440.63,623.614 1451.52,620.828 1462.24,618.495 1472.76,616.618 
  1483.05,615.199 1493.09,614.235 1502.87,613.72 1512.35,613.648 1521.53,614.009 1530.38,614.792 1538.9,615.987 1547.07,617.579 1554.88,619.556 1562.31,621.901 
  1569.35,624.601 1575.99,627.64 1582.22,631.003 1588.01,634.672 1593.36,638.632 1598.24,642.867 1602.66,647.36 1606.59,652.095 1610.02,657.053 1612.93,662.219 
  1615.32,667.574 1617.16,673.102 1618.46,678.785 1619.2,684.605 1619.37,690.543 1618.96,696.582 1617.97,702.703 1616.4,708.886 1614.23,715.114 1611.48,721.367 
  1608.13,727.626 1604.2,733.871 1599.69,740.083 1594.61,746.243 1588.97,752.33 1582.78,758.326 1576.06,764.211 1568.82,769.966 1561.09,775.572 1552.89,781.011 
  1544.24,786.263 1535.17,791.312 1525.71,796.14 1515.89,800.73 1511.97,802.45 
  "/>
<polyline clip-path="url(#clip432)" style="stroke:#000000; stroke-linecap:butt; stroke-linejoin:round; stroke-width:4; stroke-opacity:1; fill:none" points="
  1511.81,819.378 1501.49,823.615 1490.9,827.531 1480.07,831.111 1469.04,834.344 1457.86,837.216 1446.56,839.717 1435.2,841.836 1423.81,843.565 1412.44,844.898 
  1401.14,845.826 1389.94,846.345 1378.91,846.452 1368.07,846.143 1357.48,845.418 1347.18,844.276 1337.21,842.719 1327.61,840.749 1318.43,838.37 1309.71,835.586 
  1301.48,832.405 1293.79,828.833 1286.66,824.88 1280.13,820.555 1274.23,815.87 1268.99,810.837 1264.44,805.469 1260.59,799.783 1257.49,793.794 1255.13,787.52 
  1253.54,780.979 1252.73,774.193 1252.71,767.183 1253.48,759.972 1255.05,752.584 1257.42,745.046 1260.58,737.386 1264.51,729.631 1269.21,721.815 1274.65,713.967 
  1280.8,706.123 1287.65,698.317 1295.14,690.586 1303.25,682.966 1311.93,675.497 1321.12,668.217 1330.77,661.164 1340.84,654.378 1351.25,647.895 1361.95,641.752 
  1372.89,635.982 1383.98,630.617 1395.19,625.686 1406.45,621.213 1417.72,617.218 1428.93,613.72 1440.05,610.729 1451.03,608.255 1461.85,606.301 1472.46,604.868 
  1482.84,603.953 1492.97,603.549 1502.83,603.647 1512.39,604.236 1521.64,605.301 1530.57,606.829 1539.16,608.803 1547.39,611.205 1555.25,614.017 1562.74,617.221 
  1569.83,620.798 1576.51,624.729 1582.77,628.994 1588.6,633.573 1593.97,638.447 1598.88,643.596 1603.32,649.001 1607.26,654.642 1610.7,660.498 1613.62,666.551 
  1616,672.78 1617.85,679.165 1619.14,685.686 1619.86,692.323 1620.01,699.055 1619.59,705.863 1618.57,712.725 1616.97,719.621 1614.77,726.53 1611.98,733.431 
  1608.59,740.304 1604.62,747.127 1600.07,753.88 1594.94,760.542 1589.25,767.091 1583.01,773.508 1576.23,779.772 1568.94,785.863 1561.14,791.76 1552.88,797.446 
  1544.17,802.901 1535.04,808.106 1525.51,813.044 1515.63,817.699 1511.81,819.378 
  "/>
<polyline clip-path="url(#clip432)" style="stroke:#000000; stroke-linecap:butt; stroke-linejoin:round; stroke-width:4; stroke-opacity:1; fill:none" points="
  1510.31,910.926 1499.49,915.257 1488.38,919.024 1477.02,922.212 1465.47,924.81 1453.75,926.808 1441.91,928.195 1430,928.965 1418.06,929.113 1406.14,928.633 
  1394.28,927.525 1382.53,925.788 1370.94,923.423 1359.55,920.433 1348.41,916.822 1337.56,912.598 1327.06,907.769 1316.93,902.344 1307.23,896.335 1298,889.757 
  1289.28,882.623 1281.1,874.952 1273.51,866.761 1266.54,858.072 1260.22,848.907 1254.59,839.29 1249.67,829.247 1245.49,818.806 1242.08,807.998 1239.45,796.854 
  1237.63,785.409 1236.63,773.698 1236.47,761.762 1237.15,749.64 1238.67,737.377 1241.04,725.018 1244.25,712.612 1248.3,700.209 1253.17,687.863 1258.84,675.631 
  1265.28,663.57 1272.47,651.74 1280.37,640.203 1288.95,629.024 1298.14,618.264 1307.9,607.988 1318.18,598.259 1328.92,589.138 1340.04,580.682 1351.48,572.945 
  1363.18,565.977 1375.07,559.819 1387.09,554.507 1399.17,550.069 1411.25,546.526 1423.28,543.888 1435.21,542.16 1446.99,541.335 1458.59,541.404 1469.96,542.348 
  1481.07,544.142 1491.91,546.759 1502.44,550.164 1512.65,554.323 1522.51,559.197 1532.01,564.747 1541.13,570.931 1549.86,577.709 1558.19,585.038 1566.09,592.878 
  1573.57,601.188 1580.59,609.927 1587.15,619.056 1593.24,628.536 1598.84,638.329 1603.94,648.397 1608.52,658.705 1612.56,669.216 1616.07,679.896 1619.01,690.709 
  1621.39,701.622 1623.19,712.602 1624.4,723.615 1625.01,734.63 1625.01,745.615 1624.4,756.538 1623.17,767.368 1621.32,778.075 1618.85,788.628 1615.76,798.998 
  1612.05,809.156 1607.73,819.072 1602.81,828.718 1597.29,838.067 1591.18,847.092 1584.51,855.767 1577.29,864.065 1569.53,871.962 1561.26,879.434 1552.51,886.459 
  1543.29,893.014 1533.65,899.078 1523.6,904.633 1513.19,909.66 1510.31,910.927 
  "/>
<polyline clip-path="url(#clip432)" style="stroke:#000000; stroke-linecap:butt; stroke-linejoin:round; stroke-width:4; stroke-opacity:1; fill:none" points="
  1507.51,1002.37 1495.96,1006.89 1484.11,1010.63 1472.01,1013.55 1459.69,1015.67 1447.2,1016.95 1434.58,1017.4 1421.89,1017.01 1409.15,1015.77 1396.44,1013.69 
  1383.78,1010.77 1371.23,1007 1358.83,1002.4 1346.64,996.974 1334.7,990.725 1323.06,983.669 1311.77,975.818 1300.87,967.19 1290.41,957.802 1280.43,947.674 
  1270.98,936.829 1262.1,925.292 1253.82,913.089 1246.19,900.25 1239.25,886.808 1233.03,872.796 1227.56,858.251 1222.87,843.212 1219,827.723 1215.96,811.828 
  1213.79,795.575 1212.5,779.016 1212.1,762.206 1212.62,745.202 1214.06,728.067 1216.41,710.867 1219.7,693.67 1223.9,676.55 1229,659.585 1235,642.855 
  1241.86,626.446 1249.57,610.443 1258.07,594.94 1267.33,580.026 1277.3,565.797 1287.92,552.344 1299.14,539.759 1310.88,528.129 1323.06,517.538 1335.63,508.061 
  1348.49,499.765 1361.58,492.706 1374.81,486.93 1388.12,482.468 1401.44,479.34 1414.7,477.55 1427.83,477.091 1440.8,477.944 1453.55,480.077 1466.04,483.45 
  1478.23,488.016 1490.1,493.719 1501.61,500.499 1512.75,508.293 1523.49,517.034 1533.81,526.657 1543.7,537.094 1553.14,548.277 1562.11,560.141 1570.61,572.62 
  1578.62,585.651 1586.11,599.173 1593.09,613.126 1599.53,627.451 1605.42,642.094 1610.75,656.999 1615.51,672.114 1619.67,687.388 1623.24,702.771 1626.19,718.216 
  1628.52,733.676 1630.22,749.104 1631.28,764.458 1631.69,779.693 1631.44,794.768 1630.54,809.641 1628.97,824.272 1626.74,838.623 1623.85,852.654 1620.3,866.328 
  1616.1,879.609 1611.25,892.462 1605.77,904.851 1599.66,916.745 1592.94,928.11 1585.63,938.915 1577.74,949.131 1569.3,958.729 1560.33,967.682 1550.85,975.964 
  1540.9,983.55 1530.51,990.419 1519.7,996.55 1508.52,1001.92 1507.51,1002.37 
  "/>
<polyline clip-path="url(#clip432)" style="stroke:#000000; stroke-linecap:butt; stroke-linejoin:round; stroke-width:4; stroke-opacity:1; fill:none" points="
  1503.06,1093.67 1490.66,1098.46 1477.94,1102.24 1464.96,1105.01 1451.74,1106.76 1438.34,1107.47 1424.8,1107.14 1411.17,1105.76 1397.5,1103.33 1383.83,1099.86 
  1370.21,1095.33 1356.7,1089.77 1343.35,1083.18 1330.19,1075.56 1317.3,1066.94 1304.7,1057.32 1292.46,1046.72 1280.62,1035.16 1269.24,1022.67 1258.35,1009.27 
  1248,994.981 1238.25,979.846 1229.13,963.893 1220.69,947.158 1212.97,929.681 1206.01,911.503 1199.85,892.671 1194.52,873.234 1190.06,853.244 1186.5,832.757 
  1183.86,811.835 1182.18,790.543 1181.48,768.949 1181.77,747.129 1183.07,725.161 1185.38,703.131 1188.73,681.129 1193.09,659.251 1198.48,637.6 1204.87,616.284 
  1212.24,595.416 1220.57,575.114 1229.81,555.502 1239.94,536.706 1250.88,518.854 1262.59,502.074 1274.99,486.492 1288,472.228 1301.55,459.396 1315.54,448.1 
  1329.89,438.428 1344.5,430.455 1359.28,424.235 1374.15,419.805 1389.02,417.182 1403.81,416.361 1418.46,417.319 1432.9,420.017 1447.07,424.398 1460.93,430.394 
  1474.44,437.926 1487.56,446.907 1500.25,457.245 1512.5,468.844 1524.28,481.606 1535.57,495.434 1546.35,510.231 1556.61,525.902 1566.32,542.356 1575.48,559.503 
  1584.08,577.257 1592.09,595.535 1599.5,614.258 1606.31,633.35 1612.49,652.738 1618.04,672.352 1622.95,692.124 1627.19,711.989 1630.77,731.887 1633.67,751.756 
  1635.88,771.539 1637.4,791.18 1638.22,810.625 1638.33,829.822 1637.73,848.72 1636.41,867.271 1634.39,885.426 1631.65,903.14 1628.21,920.368 1624.06,937.067 
  1619.22,953.195 1613.7,968.711 1607.51,983.577 1600.65,997.755 1593.16,1011.21 1585.05,1023.9 1576.34,1035.81 1567.05,1046.89 1557.21,1057.12 1546.86,1066.47 
  1536.01,1074.92 1524.7,1082.44 1512.98,1089 1503.06,1093.67 
  "/>
<polyline clip-path="url(#clip432)" style="stroke:#000000; stroke-linecap:butt; stroke-linejoin:round; stroke-width:4; stroke-opacity:1; fill:none" points="
  1496.72,1184.81 1483.41,1189.89 1469.77,1193.78 1455.84,1196.47 1441.67,1197.95 1427.29,1198.2 1412.77,1197.22 1398.13,1195.01 1383.45,1191.56 1368.76,1186.87 
  1354.11,1180.96 1339.56,1173.82 1325.16,1165.46 1310.97,1155.9 1297.02,1145.15 1283.38,1133.23 1270.1,1120.15 1257.22,1105.94 1244.81,1090.63 1232.91,1074.24 
  1221.57,1056.8 1210.85,1038.34 1200.78,1018.92 1191.42,998.558 1182.82,977.308 1175.02,955.217 1168.06,932.338 1161.98,908.726 1156.84,884.442 1152.65,859.553 
  1149.47,834.129 1147.32,808.246 1146.23,781.988 1146.23,755.443 1147.34,728.708 1149.58,701.886 1152.96,675.088 1157.48,648.434 1163.16,622.053 1169.97,596.082 
  1177.91,570.666 1186.95,545.958 1197.05,522.119 1208.17,499.317 1220.26,477.719 1233.23,457.499 1247.03,438.824 1261.55,421.858 1276.7,406.753 1292.37,393.645 
  1308.47,382.652 1324.87,373.869 1341.47,367.361 1358.15,363.169 1374.82,361.301 1391.39,361.737 1407.77,364.432 1423.88,369.315 1439.66,376.295 1455.05,385.268 
  1470,396.112 1484.48,408.702 1498.45,422.906 1511.89,438.588 1524.76,455.615 1537.05,473.855 1548.75,493.18 1559.82,513.467 1570.27,534.596 1580.08,556.453 
  1589.23,578.932 1597.71,601.93 1605.52,625.347 1612.62,649.094 1619.03,673.08 1624.72,697.223 1629.69,721.443 1633.92,745.664 1637.41,769.813 1640.15,793.822 
  1642.13,817.624 1643.35,841.155 1643.81,864.354 1643.5,887.162 1642.42,909.522 1640.57,931.38 1637.96,952.683 1634.58,973.38 1630.46,993.423 1625.59,1012.76 
  1619.98,1031.36 1613.66,1049.16 1606.62,1066.13 1598.91,1082.23 1590.52,1097.42 1581.48,1111.66 1571.83,1124.92 1561.58,1137.16 1550.76,1148.37 1539.41,1158.5 
  1527.55,1167.53 1515.23,1175.44 1502.47,1182.2 1496.72,1184.81 
  "/>
<polyline clip-path="url(#clip432)" style="stroke:#000000; stroke-linecap:butt; stroke-linejoin:round; stroke-width:4; stroke-opacity:1; fill:none" points="
  1488.29,1275.79 1474.08,1281.17 1459.52,1285.19 1444.65,1287.85 1429.51,1289.12 1414.16,1289 1398.64,1287.48 1383,1284.57 1367.29,1280.24 1351.57,1274.51 
  1335.87,1267.39 1320.27,1258.87 1304.8,1248.96 1289.53,1237.68 1274.51,1225.05 1259.79,1211.07 1245.43,1195.77 1231.48,1179.18 1218,1161.31 1205.04,1142.21 
  1192.65,1121.89 1180.89,1100.4 1169.82,1077.78 1159.48,1054.07 1149.93,1029.31 1141.21,1003.57 1133.38,976.892 1126.49,949.341 1120.59,920.985 1115.71,891.895 
  1111.9,862.151 1109.21,831.839 1107.68,801.052 1107.33,769.893 1108.2,738.472 1110.32,706.911 1113.71,675.342 1118.39,643.909 1124.36,612.767 1131.62,582.085 
  1140.17,552.045 1149.99,522.839 1161.05,494.675 1173.29,467.765 1186.66,442.334 1201.08,418.606 1216.47,396.806 1232.71,377.149 1249.7,359.838 1267.31,345.052 
  1285.4,332.943 1303.84,323.628 1322.49,317.185 1341.21,313.649 1359.88,313.012 1378.4,315.228 1396.65,320.211 1414.54,327.848 1432.01,337.997 1448.99,350.5 
  1465.43,365.185 1481.28,381.874 1496.52,400.387 1511.11,420.545 1525.03,442.172 1538.26,465.101 1550.79,489.17 1562.6,514.227 1573.68,540.126 1584.02,566.733 
  1593.61,593.92 1602.43,621.566 1610.49,649.559 1617.76,677.793 1624.24,706.169 1629.92,734.593 1634.8,762.977 1638.86,791.235 1642.11,819.289 1644.53,847.064 
  1646.13,874.487 1646.9,901.489 1646.84,928.006 1645.95,953.973 1644.24,979.331 1641.71,1004.02 1638.36,1027.99 1634.21,1051.19 1629.26,1073.55 1623.53,1095.05 
  1617.02,1115.62 1609.77,1135.22 1601.78,1153.81 1593.07,1171.36 1583.67,1187.81 1573.61,1203.14 1562.91,1217.31 1551.6,1230.29 1539.71,1242.05 1527.28,1252.55 
  1514.33,1261.78 1500.92,1269.7 1488.29,1275.79 
  "/>
<path clip-path="url(#clip430)" d="
M1871.64 425.996 L2352.76 425.996 L2352.76 166.796 L1871.64 166.796  Z
  " fill="#ffffff" fill-rule="evenodd" fill-opacity="1"/>
<polyline clip-path="url(#clip430)" style="stroke:#000000; stroke-linecap:butt; stroke-linejoin:round; stroke-width:4; stroke-opacity:1; fill:none" points="
  1871.64,425.996 2352.76,425.996 2352.76,166.796 1871.64,166.796 1871.64,425.996 
  "/>
<polyline clip-path="url(#clip430)" style="stroke:#0000ff; stroke-linecap:butt; stroke-linejoin:round; stroke-width:4; stroke-opacity:1; fill:none" points="
  1893.92,218.636 2027.59,218.636 
  "/>
<circle clip-path="url(#clip430)" cx="1960.75" cy="218.636" r="23" fill="#009af9" fill-rule="evenodd" fill-opacity="1" stroke="#000000" stroke-opacity="1" stroke-width="5.12"/>
<path clip-path="url(#clip430)" d="M2049.87 201.356 L2071.72 201.356 L2071.72 205.291 L2054.54 205.291 L2054.54 215.522 L2071 215.522 L2071 219.457 L2054.54 219.457 L2054.54 231.981 L2072.14 231.981 L2072.14 235.916 L2049.87 235.916 L2049.87 201.356 Z" fill="#000000" fill-rule="evenodd" fill-opacity="1" /><path clip-path="url(#clip430)" d="M2091.42 222.883 Q2086.26 222.883 2084.26 224.064 Q2082.27 225.244 2082.27 228.092 Q2082.27 230.36 2083.76 231.703 Q2085.26 233.022 2087.83 233.022 Q2091.37 233.022 2093.5 230.522 Q2095.65 227.999 2095.65 223.832 L2095.65 222.883 L2091.42 222.883 M2099.91 221.124 L2099.91 235.916 L2095.65 235.916 L2095.65 231.981 Q2094.2 234.342 2092.02 235.476 Q2089.84 236.587 2086.7 236.587 Q2082.71 236.587 2080.35 234.365 Q2078.01 232.119 2078.01 228.369 Q2078.01 223.994 2080.93 221.772 Q2083.87 219.55 2089.68 219.55 L2095.65 219.55 L2095.65 219.133 Q2095.65 216.194 2093.71 214.596 Q2091.79 212.976 2088.29 212.976 Q2086.07 212.976 2083.96 213.508 Q2081.86 214.041 2079.91 215.106 L2079.91 211.17 Q2082.25 210.268 2084.45 209.828 Q2086.65 209.365 2088.73 209.365 Q2094.36 209.365 2097.14 212.282 Q2099.91 215.198 2099.91 221.124 Z" fill="#000000" fill-rule="evenodd" fill-opacity="1" /><path clip-path="url(#clip430)" d="M2123.71 213.971 Q2122.99 213.555 2122.14 213.37 Q2121.3 213.161 2120.28 213.161 Q2116.67 213.161 2114.73 215.522 Q2112.81 217.86 2112.81 222.258 L2112.81 235.916 L2108.52 235.916 L2108.52 209.99 L2112.81 209.99 L2112.81 214.018 Q2114.15 211.657 2116.3 210.522 Q2118.45 209.365 2121.53 209.365 Q2121.97 209.365 2122.51 209.434 Q2123.04 209.481 2123.69 209.596 L2123.71 213.971 Z" fill="#000000" fill-rule="evenodd" fill-opacity="1" /><path clip-path="url(#clip430)" d="M2132.39 202.629 L2132.39 209.99 L2141.16 209.99 L2141.16 213.3 L2132.39 213.3 L2132.39 227.374 Q2132.39 230.545 2133.25 231.448 Q2134.13 232.351 2136.79 232.351 L2141.16 232.351 L2141.16 235.916 L2136.79 235.916 Q2131.86 235.916 2129.98 234.087 Q2128.11 232.235 2128.11 227.374 L2128.11 213.3 L2124.98 213.3 L2124.98 209.99 L2128.11 209.99 L2128.11 202.629 L2132.39 202.629 Z" fill="#000000" fill-rule="evenodd" fill-opacity="1" /><path clip-path="url(#clip430)" d="M2168.32 220.268 L2168.32 235.916 L2164.06 235.916 L2164.06 220.407 Q2164.06 216.726 2162.62 214.897 Q2161.19 213.069 2158.32 213.069 Q2154.87 213.069 2152.88 215.268 Q2150.88 217.467 2150.88 221.263 L2150.88 235.916 L2146.6 235.916 L2146.6 199.897 L2150.88 199.897 L2150.88 214.018 Q2152.41 211.68 2154.47 210.522 Q2156.56 209.365 2159.26 209.365 Q2163.73 209.365 2166.02 212.143 Q2168.32 214.897 2168.32 220.268 Z" fill="#000000" fill-rule="evenodd" fill-opacity="1" /><polyline clip-path="url(#clip430)" style="stroke:#800080; stroke-linecap:butt; stroke-linejoin:round; stroke-width:4; stroke-opacity:1; fill:none" points="
  1893.92,270.476 2027.59,270.476 
  "/>
<path clip-path="url(#clip430)" d="M1960.75 296.076 L1938.58 283.276 L1938.58 257.676 L1960.75 244.876 L1982.92 257.676 L1982.92 283.276 Z" fill="#800080" fill-rule="evenodd" fill-opacity="1" stroke="#000000" stroke-opacity="1" stroke-width="5.12"/>
<path clip-path="url(#clip430)" d="M2049.87 253.196 L2054.54 253.196 L2054.54 283.821 L2071.37 283.821 L2071.37 287.756 L2049.87 287.756 L2049.87 253.196 Z" fill="#000000" fill-rule="evenodd" fill-opacity="1" /><path clip-path="url(#clip430)" d="M2077.51 283.821 L2085.14 283.821 L2085.14 257.455 L2076.83 259.122 L2076.83 254.862 L2085.1 253.196 L2089.77 253.196 L2089.77 283.821 L2097.41 283.821 L2097.41 287.756 L2077.51 287.756 L2077.51 283.821 Z" fill="#000000" fill-rule="evenodd" fill-opacity="1" /><polyline clip-path="url(#clip430)" style="stroke:#800080; stroke-linecap:butt; stroke-linejoin:round; stroke-width:4; stroke-opacity:1; fill:none" points="
  1893.92,322.316 2027.59,322.316 
  "/>
<path clip-path="url(#clip430)" d="M1935.15 296.716 L1935.15 347.916 L1986.35 347.916 L1986.35 296.716 L1935.15 296.716 Z" fill="#800080" fill-rule="evenodd" fill-opacity="1" stroke="#000000" stroke-opacity="1" stroke-width="5.12"/>
<path clip-path="url(#clip430)" d="M2049.87 305.036 L2054.54 305.036 L2054.54 335.661 L2071.37 335.661 L2071.37 339.596 L2049.87 339.596 L2049.87 305.036 Z" fill="#000000" fill-rule="evenodd" fill-opacity="1" /><path clip-path="url(#clip430)" d="M2080.72 335.661 L2097.04 335.661 L2097.04 339.596 L2075.1 339.596 L2075.1 335.661 Q2077.76 332.906 2082.34 328.276 Q2086.95 323.624 2088.13 322.281 Q2090.38 319.758 2091.26 318.022 Q2092.16 316.263 2092.16 314.573 Q2092.16 311.818 2090.21 310.082 Q2088.29 308.346 2085.19 308.346 Q2082.99 308.346 2080.54 309.11 Q2078.11 309.874 2075.33 311.425 L2075.33 306.702 Q2078.15 305.568 2080.61 304.989 Q2083.06 304.411 2085.1 304.411 Q2090.47 304.411 2093.66 307.096 Q2096.86 309.781 2096.86 314.272 Q2096.86 316.401 2096.05 318.323 Q2095.26 320.221 2093.15 322.813 Q2092.58 323.485 2089.47 326.702 Q2086.37 329.897 2080.72 335.661 Z" fill="#000000" fill-rule="evenodd" fill-opacity="1" /><polyline clip-path="url(#clip430)" style="stroke:#000000; stroke-linecap:butt; stroke-linejoin:round; stroke-width:4; stroke-opacity:1; fill:none" points="
  1893.92,374.156 2027.59,374.156 
  "/>
<path clip-path="url(#clip430)" d="M2049.87 356.876 L2054.54 356.876 L2054.54 371.042 L2071.53 371.042 L2071.53 356.876 L2076.21 356.876 L2076.21 391.436 L2071.53 391.436 L2071.53 374.977 L2054.54 374.977 L2054.54 391.436 L2049.87 391.436 L2049.87 356.876 Z" fill="#000000" fill-rule="evenodd" fill-opacity="1" /><path clip-path="url(#clip430)" d="M2097.11 378.403 Q2091.95 378.403 2089.96 379.584 Q2087.97 380.764 2087.97 383.612 Q2087.97 385.88 2089.45 387.223 Q2090.95 388.542 2093.52 388.542 Q2097.07 388.542 2099.2 386.042 Q2101.35 383.519 2101.35 379.352 L2101.35 378.403 L2097.11 378.403 M2105.61 376.644 L2105.61 391.436 L2101.35 391.436 L2101.35 387.501 Q2099.89 389.862 2097.71 390.996 Q2095.54 392.107 2092.39 392.107 Q2088.41 392.107 2086.05 389.885 Q2083.71 387.639 2083.71 383.889 Q2083.71 379.514 2086.63 377.292 Q2089.57 375.07 2095.38 375.07 L2101.35 375.07 L2101.35 374.653 Q2101.35 371.714 2099.4 370.116 Q2097.48 368.496 2093.99 368.496 Q2091.76 368.496 2089.66 369.028 Q2087.55 369.561 2085.61 370.626 L2085.61 366.69 Q2087.95 365.788 2090.14 365.348 Q2092.34 364.885 2094.43 364.885 Q2100.05 364.885 2102.83 367.802 Q2105.61 370.718 2105.61 376.644 Z" fill="#000000" fill-rule="evenodd" fill-opacity="1" /><path clip-path="url(#clip430)" d="M2114.38 355.417 L2118.64 355.417 L2118.64 391.436 L2114.38 391.436 L2114.38 355.417 Z" fill="#000000" fill-rule="evenodd" fill-opacity="1" /><path clip-path="url(#clip430)" d="M2137.6 368.496 Q2134.17 368.496 2132.18 371.181 Q2130.19 373.843 2130.19 378.496 Q2130.19 383.149 2132.16 385.834 Q2134.15 388.496 2137.6 388.496 Q2141 388.496 2142.99 385.811 Q2144.98 383.126 2144.98 378.496 Q2144.98 373.89 2142.99 371.204 Q2141 368.496 2137.6 368.496 M2137.6 364.885 Q2143.15 364.885 2146.32 368.496 Q2149.5 372.107 2149.5 378.496 Q2149.5 384.862 2146.32 388.496 Q2143.15 392.107 2137.6 392.107 Q2132.02 392.107 2128.85 388.496 Q2125.7 384.862 2125.7 378.496 Q2125.7 372.107 2128.85 368.496 Q2132.02 364.885 2137.6 364.885 Z" fill="#000000" fill-rule="evenodd" fill-opacity="1" /><path clip-path="url(#clip430)" d="M2185.84 360.047 Q2180.75 360.047 2177.74 363.843 Q2174.75 367.64 2174.75 374.19 Q2174.75 380.718 2177.74 384.514 Q2180.75 388.311 2185.84 388.311 Q2190.93 388.311 2193.89 384.514 Q2196.88 380.718 2196.88 374.19 Q2196.88 367.64 2193.89 363.843 Q2190.93 360.047 2185.84 360.047 M2185.84 356.251 Q2193.11 356.251 2197.46 361.135 Q2201.81 365.996 2201.81 374.19 Q2201.81 382.362 2197.46 387.246 Q2193.11 392.107 2185.84 392.107 Q2178.55 392.107 2174.17 387.246 Q2169.82 382.385 2169.82 374.19 Q2169.82 365.996 2174.17 361.135 Q2178.55 356.251 2185.84 356.251 Z" fill="#000000" fill-rule="evenodd" fill-opacity="1" /><path clip-path="url(#clip430)" d="M2223.96 369.491 Q2223.25 369.075 2222.39 368.89 Q2221.56 368.681 2220.54 368.681 Q2216.93 368.681 2214.98 371.042 Q2213.06 373.38 2213.06 377.778 L2213.06 391.436 L2208.78 391.436 L2208.78 365.51 L2213.06 365.51 L2213.06 369.538 Q2214.4 367.177 2216.56 366.042 Q2218.71 364.885 2221.79 364.885 Q2222.23 364.885 2222.76 364.954 Q2223.29 365.001 2223.94 365.116 L2223.96 369.491 Z" fill="#000000" fill-rule="evenodd" fill-opacity="1" /><path clip-path="url(#clip430)" d="M2247.04 378.496 Q2247.04 373.797 2245.1 371.135 Q2243.18 368.45 2239.8 368.45 Q2236.42 368.45 2234.47 371.135 Q2232.55 373.797 2232.55 378.496 Q2232.55 383.195 2234.47 385.88 Q2236.42 388.542 2239.8 388.542 Q2243.18 388.542 2245.1 385.88 Q2247.04 383.195 2247.04 378.496 M2232.55 369.445 Q2233.89 367.13 2235.93 366.019 Q2237.99 364.885 2240.84 364.885 Q2245.56 364.885 2248.5 368.635 Q2251.46 372.385 2251.46 378.496 Q2251.46 384.607 2248.5 388.357 Q2245.56 392.107 2240.84 392.107 Q2237.99 392.107 2235.93 390.996 Q2233.89 389.862 2232.55 387.547 L2232.55 391.436 L2228.27 391.436 L2228.27 355.417 L2232.55 355.417 L2232.55 369.445 Z" fill="#000000" fill-rule="evenodd" fill-opacity="1" /><path clip-path="url(#clip430)" d="M2258.52 365.51 L2262.78 365.51 L2262.78 391.436 L2258.52 391.436 L2258.52 365.51 M2258.52 355.417 L2262.78 355.417 L2262.78 360.811 L2258.52 360.811 L2258.52 355.417 Z" fill="#000000" fill-rule="evenodd" fill-opacity="1" /><path clip-path="url(#clip430)" d="M2275.91 358.149 L2275.91 365.51 L2284.68 365.51 L2284.68 368.82 L2275.91 368.82 L2275.91 382.894 Q2275.91 386.065 2276.76 386.968 Q2277.64 387.871 2280.31 387.871 L2284.68 387.871 L2284.68 391.436 L2280.31 391.436 Q2275.37 391.436 2273.5 389.607 Q2271.62 387.755 2271.62 382.894 L2271.62 368.82 L2268.5 368.82 L2268.5 365.51 L2271.62 365.51 L2271.62 358.149 L2275.91 358.149 Z" fill="#000000" fill-rule="evenodd" fill-opacity="1" /><path clip-path="url(#clip430)" d="M2306.81 366.274 L2306.81 370.302 Q2305 369.376 2303.06 368.913 Q2301.12 368.45 2299.03 368.45 Q2295.86 368.45 2294.26 369.422 Q2292.69 370.394 2292.69 372.339 Q2292.69 373.82 2293.82 374.677 Q2294.96 375.51 2298.38 376.274 L2299.84 376.598 Q2304.38 377.57 2306.28 379.352 Q2308.2 381.112 2308.2 384.283 Q2308.2 387.894 2305.33 390.001 Q2302.48 392.107 2297.48 392.107 Q2295.4 392.107 2293.13 391.69 Q2290.88 391.297 2288.38 390.487 L2288.38 386.089 Q2290.75 387.315 2293.04 387.94 Q2295.33 388.542 2297.57 388.542 Q2300.58 388.542 2302.2 387.524 Q2303.82 386.482 2303.82 384.607 Q2303.82 382.871 2302.64 381.945 Q2301.49 381.019 2297.53 380.163 L2296.05 379.815 Q2292.09 378.982 2290.33 377.269 Q2288.57 375.533 2288.57 372.524 Q2288.57 368.866 2291.16 366.876 Q2293.75 364.885 2298.52 364.885 Q2300.88 364.885 2302.97 365.232 Q2305.05 365.579 2306.81 366.274 Z" fill="#000000" fill-rule="evenodd" fill-opacity="1" /></svg>
